G04 #@! TF.GenerationSoftware,KiCad,Pcbnew,5.0.1-33cea8e~68~ubuntu18.04.1*
G04 #@! TF.CreationDate,2018-11-08T20:55:39+01:00*
G04 #@! TF.ProjectId,MotherPCB,4D6F746865725043422E6B696361645F,rev?*
G04 #@! TF.SameCoordinates,Original*
G04 #@! TF.FileFunction,Soldermask,Top*
G04 #@! TF.FilePolarity,Negative*
%FSLAX46Y46*%
G04 Gerber Fmt 4.6, Leading zero omitted, Abs format (unit mm)*
G04 Created by KiCad (PCBNEW 5.0.1-33cea8e~68~ubuntu18.04.1) date jue 08 nov 2018 20:55:39 CET*
%MOMM*%
%LPD*%
G01*
G04 APERTURE LIST*
%ADD10C,0.100000*%
G04 APERTURE END LIST*
D10*
G36*
X104315239Y-136532669D02*
X104488219Y-136567077D01*
X104705476Y-136657068D01*
X104705477Y-136657069D01*
X104901006Y-136787717D01*
X105067283Y-136953994D01*
X105067285Y-136953997D01*
X105197932Y-137149524D01*
X105287923Y-137366781D01*
X105333800Y-137597421D01*
X105333800Y-137832579D01*
X105287923Y-138063219D01*
X105197932Y-138280476D01*
X105197931Y-138280477D01*
X105067283Y-138476006D01*
X104901006Y-138642283D01*
X104901003Y-138642285D01*
X104705476Y-138772932D01*
X104520581Y-138849518D01*
X104498977Y-138861066D01*
X104480035Y-138876612D01*
X104464489Y-138895554D01*
X104452938Y-138917165D01*
X104445825Y-138940614D01*
X104443423Y-138965000D01*
X104445825Y-138989386D01*
X104452938Y-139012836D01*
X104464489Y-139034446D01*
X104480035Y-139053388D01*
X104498977Y-139068934D01*
X104520581Y-139080482D01*
X104705476Y-139157068D01*
X104705477Y-139157069D01*
X104901006Y-139287717D01*
X105067283Y-139453994D01*
X105067285Y-139453997D01*
X105197932Y-139649524D01*
X105287923Y-139866781D01*
X105333800Y-140097421D01*
X105333800Y-140332579D01*
X105287923Y-140563219D01*
X105197932Y-140780476D01*
X105197931Y-140780477D01*
X105067283Y-140976006D01*
X104901006Y-141142283D01*
X104901003Y-141142285D01*
X104705476Y-141272932D01*
X104488219Y-141362923D01*
X104315239Y-141397331D01*
X104257580Y-141408800D01*
X104022420Y-141408800D01*
X103964761Y-141397331D01*
X103791781Y-141362923D01*
X103574524Y-141272932D01*
X103378997Y-141142285D01*
X103378994Y-141142283D01*
X103212717Y-140976006D01*
X103082069Y-140780477D01*
X103082068Y-140780476D01*
X102992077Y-140563219D01*
X102946200Y-140332579D01*
X102946200Y-140097421D01*
X102992077Y-139866781D01*
X103082068Y-139649524D01*
X103212715Y-139453997D01*
X103212717Y-139453994D01*
X103378994Y-139287717D01*
X103574523Y-139157069D01*
X103574524Y-139157068D01*
X103759419Y-139080482D01*
X103781023Y-139068934D01*
X103799965Y-139053388D01*
X103815511Y-139034446D01*
X103827062Y-139012835D01*
X103834175Y-138989386D01*
X103836577Y-138965000D01*
X103834175Y-138940614D01*
X103827062Y-138917164D01*
X103815511Y-138895554D01*
X103799965Y-138876612D01*
X103781023Y-138861066D01*
X103759419Y-138849518D01*
X103574524Y-138772932D01*
X103378997Y-138642285D01*
X103378994Y-138642283D01*
X103212717Y-138476006D01*
X103082069Y-138280477D01*
X103082068Y-138280476D01*
X102992077Y-138063219D01*
X102946200Y-137832579D01*
X102946200Y-137597421D01*
X102992077Y-137366781D01*
X103082068Y-137149524D01*
X103212715Y-136953997D01*
X103212717Y-136953994D01*
X103378994Y-136787717D01*
X103574523Y-136657069D01*
X103574524Y-136657068D01*
X103791781Y-136567077D01*
X103964761Y-136532669D01*
X104022420Y-136521200D01*
X104257580Y-136521200D01*
X104315239Y-136532669D01*
X104315239Y-136532669D01*
G37*
G36*
X99315239Y-134032669D02*
X99488219Y-134067077D01*
X99705476Y-134157068D01*
X99705477Y-134157069D01*
X99901006Y-134287717D01*
X100067283Y-134453994D01*
X100067285Y-134453997D01*
X100197932Y-134649524D01*
X100287923Y-134866781D01*
X100333800Y-135097421D01*
X100333800Y-135332579D01*
X100287923Y-135563219D01*
X100197932Y-135780476D01*
X100197931Y-135780477D01*
X100067283Y-135976006D01*
X99901006Y-136142283D01*
X99901003Y-136142285D01*
X99705476Y-136272932D01*
X99488219Y-136362923D01*
X99315239Y-136397331D01*
X99257580Y-136408800D01*
X99022420Y-136408800D01*
X98964761Y-136397331D01*
X98791781Y-136362923D01*
X98574524Y-136272932D01*
X98378997Y-136142285D01*
X98378994Y-136142283D01*
X98212717Y-135976006D01*
X98082069Y-135780477D01*
X98082068Y-135780476D01*
X97992077Y-135563219D01*
X97946200Y-135332579D01*
X97946200Y-135097421D01*
X97992077Y-134866781D01*
X98082068Y-134649524D01*
X98212715Y-134453997D01*
X98212717Y-134453994D01*
X98378994Y-134287717D01*
X98574523Y-134157069D01*
X98574524Y-134157068D01*
X98791781Y-134067077D01*
X98964761Y-134032669D01*
X99022420Y-134021200D01*
X99257580Y-134021200D01*
X99315239Y-134032669D01*
X99315239Y-134032669D01*
G37*
G36*
X104315239Y-129032669D02*
X104488219Y-129067077D01*
X104705476Y-129157068D01*
X104705477Y-129157069D01*
X104901006Y-129287717D01*
X105067283Y-129453994D01*
X105067285Y-129453997D01*
X105197932Y-129649524D01*
X105287923Y-129866781D01*
X105322331Y-130039761D01*
X105327142Y-130063946D01*
X105333800Y-130097421D01*
X105333800Y-130332579D01*
X105287923Y-130563219D01*
X105197932Y-130780476D01*
X105069045Y-130973369D01*
X105067283Y-130976006D01*
X104901006Y-131142283D01*
X104901003Y-131142285D01*
X104705476Y-131272932D01*
X104520581Y-131349518D01*
X104498977Y-131361066D01*
X104480035Y-131376612D01*
X104464489Y-131395554D01*
X104452938Y-131417165D01*
X104445825Y-131440614D01*
X104443423Y-131465000D01*
X104445825Y-131489386D01*
X104452938Y-131512836D01*
X104464489Y-131534446D01*
X104480035Y-131553388D01*
X104498977Y-131568934D01*
X104520581Y-131580482D01*
X104705476Y-131657068D01*
X104705477Y-131657069D01*
X104901006Y-131787717D01*
X105067283Y-131953994D01*
X105067285Y-131953997D01*
X105197932Y-132149524D01*
X105287923Y-132366781D01*
X105333800Y-132597421D01*
X105333800Y-132832579D01*
X105287923Y-133063219D01*
X105197932Y-133280476D01*
X105197931Y-133280477D01*
X105067283Y-133476006D01*
X104901006Y-133642283D01*
X104901003Y-133642285D01*
X104705476Y-133772932D01*
X104488219Y-133862923D01*
X104315239Y-133897331D01*
X104257580Y-133908800D01*
X104022420Y-133908800D01*
X103964761Y-133897331D01*
X103791781Y-133862923D01*
X103574524Y-133772932D01*
X103378997Y-133642285D01*
X103378994Y-133642283D01*
X103212717Y-133476006D01*
X103082069Y-133280477D01*
X103082068Y-133280476D01*
X102992077Y-133063219D01*
X102946200Y-132832579D01*
X102946200Y-132597421D01*
X102992077Y-132366781D01*
X103082068Y-132149524D01*
X103212715Y-131953997D01*
X103212717Y-131953994D01*
X103378994Y-131787717D01*
X103574523Y-131657069D01*
X103574524Y-131657068D01*
X103759419Y-131580482D01*
X103781023Y-131568934D01*
X103799965Y-131553388D01*
X103815511Y-131534446D01*
X103827062Y-131512835D01*
X103834175Y-131489386D01*
X103836577Y-131465000D01*
X103834175Y-131440614D01*
X103827062Y-131417164D01*
X103815511Y-131395554D01*
X103799965Y-131376612D01*
X103781023Y-131361066D01*
X103759419Y-131349518D01*
X103574524Y-131272932D01*
X103378997Y-131142285D01*
X103378994Y-131142283D01*
X103212717Y-130976006D01*
X103210955Y-130973369D01*
X103082068Y-130780476D01*
X102992077Y-130563219D01*
X102946200Y-130332579D01*
X102946200Y-130097421D01*
X102952859Y-130063946D01*
X102957669Y-130039761D01*
X102992077Y-129866781D01*
X103082068Y-129649524D01*
X103212715Y-129453997D01*
X103212717Y-129453994D01*
X103378994Y-129287717D01*
X103574523Y-129157069D01*
X103574524Y-129157068D01*
X103791781Y-129067077D01*
X103964761Y-129032669D01*
X104022420Y-129021200D01*
X104257580Y-129021200D01*
X104315239Y-129032669D01*
X104315239Y-129032669D01*
G37*
G36*
X136934122Y-129056115D02*
X137050041Y-129079173D01*
X137377620Y-129214861D01*
X137668511Y-129409228D01*
X137672436Y-129411851D01*
X137923149Y-129662564D01*
X137923151Y-129662567D01*
X138120139Y-129957380D01*
X138230506Y-130223828D01*
X138255827Y-130284960D01*
X138325000Y-130632714D01*
X138325000Y-130987286D01*
X138279951Y-131213762D01*
X138255827Y-131335041D01*
X138165384Y-131553388D01*
X138120140Y-131662618D01*
X137923149Y-131957436D01*
X137672436Y-132208149D01*
X137672433Y-132208151D01*
X137377620Y-132405139D01*
X137050041Y-132540827D01*
X136934122Y-132563885D01*
X136702286Y-132610000D01*
X136347714Y-132610000D01*
X136115878Y-132563885D01*
X135999959Y-132540827D01*
X135672380Y-132405139D01*
X135377567Y-132208151D01*
X135377564Y-132208149D01*
X135126851Y-131957436D01*
X134929860Y-131662618D01*
X134884616Y-131553388D01*
X134794173Y-131335041D01*
X134770049Y-131213762D01*
X134725000Y-130987286D01*
X134725000Y-130632714D01*
X134794173Y-130284960D01*
X134819495Y-130223828D01*
X134929861Y-129957380D01*
X135126849Y-129662567D01*
X135126851Y-129662564D01*
X135377564Y-129411851D01*
X135381489Y-129409228D01*
X135672380Y-129214861D01*
X135999959Y-129079173D01*
X136115878Y-129056115D01*
X136347714Y-129010000D01*
X136702286Y-129010000D01*
X136934122Y-129056115D01*
X136934122Y-129056115D01*
G37*
G36*
X111534122Y-129056115D02*
X111650041Y-129079173D01*
X111977620Y-129214861D01*
X112268511Y-129409228D01*
X112272436Y-129411851D01*
X112523149Y-129662564D01*
X112523151Y-129662567D01*
X112720139Y-129957380D01*
X112830506Y-130223828D01*
X112855827Y-130284960D01*
X112925000Y-130632714D01*
X112925000Y-130987286D01*
X112879951Y-131213762D01*
X112855827Y-131335041D01*
X112765384Y-131553388D01*
X112720140Y-131662618D01*
X112523149Y-131957436D01*
X112272436Y-132208149D01*
X112272433Y-132208151D01*
X111977620Y-132405139D01*
X111650041Y-132540827D01*
X111534122Y-132563885D01*
X111302286Y-132610000D01*
X110947714Y-132610000D01*
X110715878Y-132563885D01*
X110599959Y-132540827D01*
X110272380Y-132405139D01*
X109977567Y-132208151D01*
X109977564Y-132208149D01*
X109726851Y-131957436D01*
X109529860Y-131662618D01*
X109484616Y-131553388D01*
X109394173Y-131335041D01*
X109370049Y-131213762D01*
X109325000Y-130987286D01*
X109325000Y-130632714D01*
X109394173Y-130284960D01*
X109419495Y-130223828D01*
X109529861Y-129957380D01*
X109726849Y-129662567D01*
X109726851Y-129662564D01*
X109977564Y-129411851D01*
X109981489Y-129409228D01*
X110272380Y-129214861D01*
X110599959Y-129079173D01*
X110715878Y-129056115D01*
X110947714Y-129010000D01*
X111302286Y-129010000D01*
X111534122Y-129056115D01*
X111534122Y-129056115D01*
G37*
G36*
X126780000Y-131860000D02*
X124680000Y-131860000D01*
X124680000Y-129760000D01*
X126780000Y-129760000D01*
X126780000Y-131860000D01*
X126780000Y-131860000D01*
G37*
G36*
X128398707Y-129767597D02*
X128475836Y-129775193D01*
X128607787Y-129815220D01*
X128673763Y-129835233D01*
X128856172Y-129932733D01*
X129016054Y-130063946D01*
X129147267Y-130223828D01*
X129244767Y-130406237D01*
X129244767Y-130406238D01*
X129304807Y-130604164D01*
X129325080Y-130810000D01*
X129304807Y-131015836D01*
X129266450Y-131142283D01*
X129244767Y-131213763D01*
X129147267Y-131396172D01*
X129016054Y-131556054D01*
X128856172Y-131687267D01*
X128673763Y-131784767D01*
X128607787Y-131804780D01*
X128475836Y-131844807D01*
X128398707Y-131852404D01*
X128321580Y-131860000D01*
X128218420Y-131860000D01*
X128141293Y-131852404D01*
X128064164Y-131844807D01*
X127932213Y-131804780D01*
X127866237Y-131784767D01*
X127683828Y-131687267D01*
X127523946Y-131556054D01*
X127392733Y-131396172D01*
X127295233Y-131213763D01*
X127273550Y-131142283D01*
X127235193Y-131015836D01*
X127214920Y-130810000D01*
X127235193Y-130604164D01*
X127295233Y-130406238D01*
X127295233Y-130406237D01*
X127392733Y-130223828D01*
X127523946Y-130063946D01*
X127683828Y-129932733D01*
X127866237Y-129835233D01*
X127932213Y-129815220D01*
X128064164Y-129775193D01*
X128141293Y-129767597D01*
X128218420Y-129760000D01*
X128321580Y-129760000D01*
X128398707Y-129767597D01*
X128398707Y-129767597D01*
G37*
G36*
X104315239Y-123237669D02*
X104488219Y-123272077D01*
X104705476Y-123362068D01*
X104705477Y-123362069D01*
X104901006Y-123492717D01*
X105067283Y-123658994D01*
X105067285Y-123658997D01*
X105197932Y-123854524D01*
X105287923Y-124071781D01*
X105333800Y-124302421D01*
X105333800Y-124537579D01*
X105287923Y-124768219D01*
X105197932Y-124985476D01*
X105197931Y-124985477D01*
X105067283Y-125181006D01*
X104901006Y-125347283D01*
X104901003Y-125347285D01*
X104705476Y-125477932D01*
X104520581Y-125554518D01*
X104498977Y-125566066D01*
X104480035Y-125581612D01*
X104464489Y-125600554D01*
X104452938Y-125622165D01*
X104445825Y-125645614D01*
X104443423Y-125670000D01*
X104445825Y-125694386D01*
X104452938Y-125717836D01*
X104464489Y-125739446D01*
X104480035Y-125758388D01*
X104498977Y-125773934D01*
X104520581Y-125785482D01*
X104705476Y-125862068D01*
X104705477Y-125862069D01*
X104901006Y-125992717D01*
X105067283Y-126158994D01*
X105067285Y-126158997D01*
X105197932Y-126354524D01*
X105287923Y-126571781D01*
X105333800Y-126802421D01*
X105333800Y-127037579D01*
X105287923Y-127268219D01*
X105197932Y-127485476D01*
X105197931Y-127485477D01*
X105067283Y-127681006D01*
X104901006Y-127847283D01*
X104901003Y-127847285D01*
X104705476Y-127977932D01*
X104488219Y-128067923D01*
X104315239Y-128102331D01*
X104257580Y-128113800D01*
X104022420Y-128113800D01*
X103964761Y-128102331D01*
X103791781Y-128067923D01*
X103574524Y-127977932D01*
X103378997Y-127847285D01*
X103378994Y-127847283D01*
X103212717Y-127681006D01*
X103082069Y-127485477D01*
X103082068Y-127485476D01*
X102992077Y-127268219D01*
X102946200Y-127037579D01*
X102946200Y-126802421D01*
X102992077Y-126571781D01*
X103082068Y-126354524D01*
X103212715Y-126158997D01*
X103212717Y-126158994D01*
X103378994Y-125992717D01*
X103574523Y-125862069D01*
X103574524Y-125862068D01*
X103759419Y-125785482D01*
X103781023Y-125773934D01*
X103799965Y-125758388D01*
X103815511Y-125739446D01*
X103827062Y-125717835D01*
X103834175Y-125694386D01*
X103836577Y-125670000D01*
X103834175Y-125645614D01*
X103827062Y-125622164D01*
X103815511Y-125600554D01*
X103799965Y-125581612D01*
X103781023Y-125566066D01*
X103759419Y-125554518D01*
X103574524Y-125477932D01*
X103378997Y-125347285D01*
X103378994Y-125347283D01*
X103212717Y-125181006D01*
X103082069Y-124985477D01*
X103082068Y-124985476D01*
X102992077Y-124768219D01*
X102946200Y-124537579D01*
X102946200Y-124302421D01*
X102992077Y-124071781D01*
X103082068Y-123854524D01*
X103212715Y-123658997D01*
X103212717Y-123658994D01*
X103378994Y-123492717D01*
X103574523Y-123362069D01*
X103574524Y-123362068D01*
X103791781Y-123272077D01*
X103964761Y-123237669D01*
X104022420Y-123226200D01*
X104257580Y-123226200D01*
X104315239Y-123237669D01*
X104315239Y-123237669D01*
G37*
G36*
X109348707Y-123417596D02*
X109425836Y-123425193D01*
X109557787Y-123465220D01*
X109623763Y-123485233D01*
X109806172Y-123582733D01*
X109966054Y-123713946D01*
X110097267Y-123873828D01*
X110194767Y-124056237D01*
X110194767Y-124056238D01*
X110254807Y-124254164D01*
X110275080Y-124460000D01*
X110254807Y-124665836D01*
X110214780Y-124797787D01*
X110194767Y-124863763D01*
X110097267Y-125046172D01*
X109966054Y-125206054D01*
X109806172Y-125337267D01*
X109623763Y-125434767D01*
X109557787Y-125454780D01*
X109425836Y-125494807D01*
X109348707Y-125502403D01*
X109271580Y-125510000D01*
X109168420Y-125510000D01*
X109091293Y-125502403D01*
X109014164Y-125494807D01*
X108882213Y-125454780D01*
X108816237Y-125434767D01*
X108633828Y-125337267D01*
X108473946Y-125206054D01*
X108342733Y-125046172D01*
X108245233Y-124863763D01*
X108225220Y-124797787D01*
X108185193Y-124665836D01*
X108164920Y-124460000D01*
X108185193Y-124254164D01*
X108245233Y-124056238D01*
X108245233Y-124056237D01*
X108342733Y-123873828D01*
X108473946Y-123713946D01*
X108633828Y-123582733D01*
X108816237Y-123485233D01*
X108882213Y-123465220D01*
X109014164Y-123425193D01*
X109091293Y-123417596D01*
X109168420Y-123410000D01*
X109271580Y-123410000D01*
X109348707Y-123417596D01*
X109348707Y-123417596D01*
G37*
G36*
X132208707Y-123417596D02*
X132285836Y-123425193D01*
X132417787Y-123465220D01*
X132483763Y-123485233D01*
X132666172Y-123582733D01*
X132826054Y-123713946D01*
X132957267Y-123873828D01*
X133054767Y-124056237D01*
X133054767Y-124056238D01*
X133114807Y-124254164D01*
X133135080Y-124460000D01*
X133114807Y-124665836D01*
X133074780Y-124797787D01*
X133054767Y-124863763D01*
X132957267Y-125046172D01*
X132826054Y-125206054D01*
X132666172Y-125337267D01*
X132483763Y-125434767D01*
X132417787Y-125454780D01*
X132285836Y-125494807D01*
X132208707Y-125502403D01*
X132131580Y-125510000D01*
X132028420Y-125510000D01*
X131951293Y-125502403D01*
X131874164Y-125494807D01*
X131742213Y-125454780D01*
X131676237Y-125434767D01*
X131493828Y-125337267D01*
X131333946Y-125206054D01*
X131202733Y-125046172D01*
X131105233Y-124863763D01*
X131085220Y-124797787D01*
X131045193Y-124665836D01*
X131024920Y-124460000D01*
X131045193Y-124254164D01*
X131105233Y-124056238D01*
X131105233Y-124056237D01*
X131202733Y-123873828D01*
X131333946Y-123713946D01*
X131493828Y-123582733D01*
X131676237Y-123485233D01*
X131742213Y-123465220D01*
X131874164Y-123425193D01*
X131951293Y-123417596D01*
X132028420Y-123410000D01*
X132131580Y-123410000D01*
X132208707Y-123417596D01*
X132208707Y-123417596D01*
G37*
G36*
X136997034Y-119599624D02*
X137112953Y-119622682D01*
X137440532Y-119758370D01*
X137478535Y-119783763D01*
X137735348Y-119955360D01*
X137986061Y-120206073D01*
X137986063Y-120206076D01*
X138167712Y-120477932D01*
X138183052Y-120500891D01*
X138222793Y-120596835D01*
X138318739Y-120828468D01*
X138327000Y-120870000D01*
X138387912Y-121176223D01*
X138387912Y-121530795D01*
X138351437Y-121714164D01*
X138318739Y-121878550D01*
X138183051Y-122206129D01*
X138104451Y-122323762D01*
X137986061Y-122500945D01*
X137735348Y-122751658D01*
X137735345Y-122751660D01*
X137440532Y-122948648D01*
X137112953Y-123084336D01*
X136997034Y-123107394D01*
X136765198Y-123153509D01*
X136410626Y-123153509D01*
X136178790Y-123107394D01*
X136062871Y-123084336D01*
X135735292Y-122948648D01*
X135440479Y-122751660D01*
X135440476Y-122751658D01*
X135189763Y-122500945D01*
X135071373Y-122323762D01*
X134992773Y-122206129D01*
X134857085Y-121878550D01*
X134824387Y-121714164D01*
X134787912Y-121530795D01*
X134787912Y-121176223D01*
X134848824Y-120870000D01*
X134857085Y-120828468D01*
X134953031Y-120596835D01*
X134992772Y-120500891D01*
X135008113Y-120477932D01*
X135189761Y-120206076D01*
X135189763Y-120206073D01*
X135440476Y-119955360D01*
X135697289Y-119783763D01*
X135735292Y-119758370D01*
X136062871Y-119622682D01*
X136178790Y-119599624D01*
X136410626Y-119553509D01*
X136765198Y-119553509D01*
X136997034Y-119599624D01*
X136997034Y-119599624D01*
G37*
G36*
X99315239Y-120737669D02*
X99488219Y-120772077D01*
X99705476Y-120862068D01*
X99705477Y-120862069D01*
X99901006Y-120992717D01*
X100067283Y-121158994D01*
X100067285Y-121158997D01*
X100197932Y-121354524D01*
X100287923Y-121571781D01*
X100333800Y-121802421D01*
X100333800Y-122037579D01*
X100287923Y-122268219D01*
X100197932Y-122485476D01*
X100197931Y-122485477D01*
X100067283Y-122681006D01*
X99901006Y-122847283D01*
X99901003Y-122847285D01*
X99705476Y-122977932D01*
X99488219Y-123067923D01*
X99315239Y-123102331D01*
X99257580Y-123113800D01*
X99022420Y-123113800D01*
X98964761Y-123102331D01*
X98791781Y-123067923D01*
X98574524Y-122977932D01*
X98378997Y-122847285D01*
X98378994Y-122847283D01*
X98212717Y-122681006D01*
X98082069Y-122485477D01*
X98082068Y-122485476D01*
X97992077Y-122268219D01*
X97946200Y-122037579D01*
X97946200Y-121802421D01*
X97992077Y-121571781D01*
X98082068Y-121354524D01*
X98212715Y-121158997D01*
X98212717Y-121158994D01*
X98378994Y-120992717D01*
X98574523Y-120862069D01*
X98574524Y-120862068D01*
X98791781Y-120772077D01*
X98964761Y-120737669D01*
X99022420Y-120726200D01*
X99257580Y-120726200D01*
X99315239Y-120737669D01*
X99315239Y-120737669D01*
G37*
G36*
X132208707Y-120877596D02*
X132285836Y-120885193D01*
X132417787Y-120925220D01*
X132483763Y-120945233D01*
X132666172Y-121042733D01*
X132826054Y-121173946D01*
X132957267Y-121333828D01*
X133054767Y-121516237D01*
X133054767Y-121516238D01*
X133114807Y-121714164D01*
X133135080Y-121920000D01*
X133114807Y-122125836D01*
X133090451Y-122206127D01*
X133054767Y-122323763D01*
X132957267Y-122506172D01*
X132826054Y-122666054D01*
X132666172Y-122797267D01*
X132483763Y-122894767D01*
X132417787Y-122914780D01*
X132285836Y-122954807D01*
X132208707Y-122962403D01*
X132131580Y-122970000D01*
X132028420Y-122970000D01*
X131951293Y-122962403D01*
X131874164Y-122954807D01*
X131742213Y-122914780D01*
X131676237Y-122894767D01*
X131493828Y-122797267D01*
X131333946Y-122666054D01*
X131202733Y-122506172D01*
X131105233Y-122323763D01*
X131069549Y-122206127D01*
X131045193Y-122125836D01*
X131024920Y-121920000D01*
X131045193Y-121714164D01*
X131105233Y-121516238D01*
X131105233Y-121516237D01*
X131202733Y-121333828D01*
X131333946Y-121173946D01*
X131493828Y-121042733D01*
X131676237Y-120945233D01*
X131742213Y-120925220D01*
X131874164Y-120885193D01*
X131951293Y-120877596D01*
X132028420Y-120870000D01*
X132131580Y-120870000D01*
X132208707Y-120877596D01*
X132208707Y-120877596D01*
G37*
G36*
X109348707Y-120877596D02*
X109425836Y-120885193D01*
X109557787Y-120925220D01*
X109623763Y-120945233D01*
X109806172Y-121042733D01*
X109966054Y-121173946D01*
X110097267Y-121333828D01*
X110194767Y-121516237D01*
X110194767Y-121516238D01*
X110254807Y-121714164D01*
X110275080Y-121920000D01*
X110254807Y-122125836D01*
X110230451Y-122206127D01*
X110194767Y-122323763D01*
X110097267Y-122506172D01*
X109966054Y-122666054D01*
X109806172Y-122797267D01*
X109623763Y-122894767D01*
X109557787Y-122914780D01*
X109425836Y-122954807D01*
X109348707Y-122962403D01*
X109271580Y-122970000D01*
X109168420Y-122970000D01*
X109091293Y-122962403D01*
X109014164Y-122954807D01*
X108882213Y-122914780D01*
X108816237Y-122894767D01*
X108633828Y-122797267D01*
X108473946Y-122666054D01*
X108342733Y-122506172D01*
X108245233Y-122323763D01*
X108209549Y-122206127D01*
X108185193Y-122125836D01*
X108164920Y-121920000D01*
X108185193Y-121714164D01*
X108245233Y-121516238D01*
X108245233Y-121516237D01*
X108342733Y-121333828D01*
X108473946Y-121173946D01*
X108633828Y-121042733D01*
X108816237Y-120945233D01*
X108882213Y-120925220D01*
X109014164Y-120885193D01*
X109091293Y-120877596D01*
X109168420Y-120870000D01*
X109271580Y-120870000D01*
X109348707Y-120877596D01*
X109348707Y-120877596D01*
G37*
G36*
X104315239Y-115737669D02*
X104488219Y-115772077D01*
X104705476Y-115862068D01*
X104856132Y-115962733D01*
X104901006Y-115992717D01*
X105067283Y-116158994D01*
X105067285Y-116158997D01*
X105197932Y-116354524D01*
X105287923Y-116571781D01*
X105333800Y-116802421D01*
X105333800Y-117037579D01*
X105287923Y-117268219D01*
X105197932Y-117485476D01*
X105197931Y-117485477D01*
X105067283Y-117681006D01*
X104901006Y-117847283D01*
X104901003Y-117847285D01*
X104705476Y-117977932D01*
X104520581Y-118054518D01*
X104498977Y-118066066D01*
X104480035Y-118081612D01*
X104464489Y-118100554D01*
X104452938Y-118122165D01*
X104445825Y-118145614D01*
X104443423Y-118170000D01*
X104445825Y-118194386D01*
X104452938Y-118217836D01*
X104464489Y-118239446D01*
X104480035Y-118258388D01*
X104498977Y-118273934D01*
X104520581Y-118285482D01*
X104705476Y-118362068D01*
X104705477Y-118362069D01*
X104901006Y-118492717D01*
X105067283Y-118658994D01*
X105067285Y-118658997D01*
X105197932Y-118854524D01*
X105287923Y-119071781D01*
X105333800Y-119302421D01*
X105333800Y-119537579D01*
X105287923Y-119768219D01*
X105197932Y-119985476D01*
X105197931Y-119985477D01*
X105067283Y-120181006D01*
X104901006Y-120347283D01*
X104901003Y-120347285D01*
X104705476Y-120477932D01*
X104488219Y-120567923D01*
X104315239Y-120602331D01*
X104257580Y-120613800D01*
X104022420Y-120613800D01*
X103964761Y-120602331D01*
X103791781Y-120567923D01*
X103574524Y-120477932D01*
X103378997Y-120347285D01*
X103378994Y-120347283D01*
X103212717Y-120181006D01*
X103082069Y-119985477D01*
X103082068Y-119985476D01*
X102992077Y-119768219D01*
X102946200Y-119537579D01*
X102946200Y-119302421D01*
X102992077Y-119071781D01*
X103082068Y-118854524D01*
X103212715Y-118658997D01*
X103212717Y-118658994D01*
X103378994Y-118492717D01*
X103574523Y-118362069D01*
X103574524Y-118362068D01*
X103759419Y-118285482D01*
X103781023Y-118273934D01*
X103799965Y-118258388D01*
X103815511Y-118239446D01*
X103827062Y-118217835D01*
X103834175Y-118194386D01*
X103836577Y-118170000D01*
X103834175Y-118145614D01*
X103827062Y-118122164D01*
X103815511Y-118100554D01*
X103799965Y-118081612D01*
X103781023Y-118066066D01*
X103759419Y-118054518D01*
X103574524Y-117977932D01*
X103378997Y-117847285D01*
X103378994Y-117847283D01*
X103212717Y-117681006D01*
X103082069Y-117485477D01*
X103082068Y-117485476D01*
X102992077Y-117268219D01*
X102946200Y-117037579D01*
X102946200Y-116802421D01*
X102992077Y-116571781D01*
X103082068Y-116354524D01*
X103212715Y-116158997D01*
X103212717Y-116158994D01*
X103378994Y-115992717D01*
X103423868Y-115962733D01*
X103574524Y-115862068D01*
X103791781Y-115772077D01*
X103964761Y-115737669D01*
X104022420Y-115726200D01*
X104257580Y-115726200D01*
X104315239Y-115737669D01*
X104315239Y-115737669D01*
G37*
G36*
X132208707Y-118337596D02*
X132285836Y-118345193D01*
X132417787Y-118385220D01*
X132483763Y-118405233D01*
X132666172Y-118502733D01*
X132826054Y-118633946D01*
X132957267Y-118793828D01*
X133054767Y-118976237D01*
X133054767Y-118976238D01*
X133114807Y-119174164D01*
X133135080Y-119380000D01*
X133114807Y-119585836D01*
X133074780Y-119717787D01*
X133054767Y-119783763D01*
X132957267Y-119966172D01*
X132826054Y-120126054D01*
X132666172Y-120257267D01*
X132483763Y-120354767D01*
X132417787Y-120374780D01*
X132285836Y-120414807D01*
X132208707Y-120422404D01*
X132131580Y-120430000D01*
X132028420Y-120430000D01*
X131951293Y-120422404D01*
X131874164Y-120414807D01*
X131742213Y-120374780D01*
X131676237Y-120354767D01*
X131493828Y-120257267D01*
X131333946Y-120126054D01*
X131202733Y-119966172D01*
X131105233Y-119783763D01*
X131085220Y-119717787D01*
X131045193Y-119585836D01*
X131024920Y-119380000D01*
X131045193Y-119174164D01*
X131105233Y-118976238D01*
X131105233Y-118976237D01*
X131202733Y-118793828D01*
X131333946Y-118633946D01*
X131493828Y-118502733D01*
X131676237Y-118405233D01*
X131742213Y-118385220D01*
X131874164Y-118345193D01*
X131951293Y-118337596D01*
X132028420Y-118330000D01*
X132131580Y-118330000D01*
X132208707Y-118337596D01*
X132208707Y-118337596D01*
G37*
G36*
X109348707Y-118337596D02*
X109425836Y-118345193D01*
X109557787Y-118385220D01*
X109623763Y-118405233D01*
X109806172Y-118502733D01*
X109966054Y-118633946D01*
X110097267Y-118793828D01*
X110194767Y-118976237D01*
X110194767Y-118976238D01*
X110254807Y-119174164D01*
X110275080Y-119380000D01*
X110254807Y-119585836D01*
X110214780Y-119717787D01*
X110194767Y-119783763D01*
X110097267Y-119966172D01*
X109966054Y-120126054D01*
X109806172Y-120257267D01*
X109623763Y-120354767D01*
X109557787Y-120374780D01*
X109425836Y-120414807D01*
X109348707Y-120422404D01*
X109271580Y-120430000D01*
X109168420Y-120430000D01*
X109091293Y-120422404D01*
X109014164Y-120414807D01*
X108882213Y-120374780D01*
X108816237Y-120354767D01*
X108633828Y-120257267D01*
X108473946Y-120126054D01*
X108342733Y-119966172D01*
X108245233Y-119783763D01*
X108225220Y-119717787D01*
X108185193Y-119585836D01*
X108164920Y-119380000D01*
X108185193Y-119174164D01*
X108245233Y-118976238D01*
X108245233Y-118976237D01*
X108342733Y-118793828D01*
X108473946Y-118633946D01*
X108633828Y-118502733D01*
X108816237Y-118405233D01*
X108882213Y-118385220D01*
X109014164Y-118345193D01*
X109091293Y-118337596D01*
X109168420Y-118330000D01*
X109271580Y-118330000D01*
X109348707Y-118337596D01*
X109348707Y-118337596D01*
G37*
G36*
X109348707Y-115797596D02*
X109425836Y-115805193D01*
X109557787Y-115845220D01*
X109623763Y-115865233D01*
X109806172Y-115962733D01*
X109966054Y-116093946D01*
X110097267Y-116253828D01*
X110194767Y-116436237D01*
X110194767Y-116436238D01*
X110254807Y-116634164D01*
X110275080Y-116840000D01*
X110254807Y-117045836D01*
X110214780Y-117177787D01*
X110194767Y-117243763D01*
X110097267Y-117426172D01*
X109966054Y-117586054D01*
X109806172Y-117717267D01*
X109623763Y-117814767D01*
X109557787Y-117834780D01*
X109425836Y-117874807D01*
X109348707Y-117882404D01*
X109271580Y-117890000D01*
X109168420Y-117890000D01*
X109091293Y-117882404D01*
X109014164Y-117874807D01*
X108882213Y-117834780D01*
X108816237Y-117814767D01*
X108633828Y-117717267D01*
X108473946Y-117586054D01*
X108342733Y-117426172D01*
X108245233Y-117243763D01*
X108225220Y-117177787D01*
X108185193Y-117045836D01*
X108164920Y-116840000D01*
X108185193Y-116634164D01*
X108245233Y-116436238D01*
X108245233Y-116436237D01*
X108342733Y-116253828D01*
X108473946Y-116093946D01*
X108633828Y-115962733D01*
X108816237Y-115865233D01*
X108882213Y-115845220D01*
X109014164Y-115805193D01*
X109091293Y-115797596D01*
X109168420Y-115790000D01*
X109271580Y-115790000D01*
X109348707Y-115797596D01*
X109348707Y-115797596D01*
G37*
G36*
X132208707Y-115797596D02*
X132285836Y-115805193D01*
X132417787Y-115845220D01*
X132483763Y-115865233D01*
X132666172Y-115962733D01*
X132826054Y-116093946D01*
X132957267Y-116253828D01*
X133054767Y-116436237D01*
X133054767Y-116436238D01*
X133114807Y-116634164D01*
X133135080Y-116840000D01*
X133114807Y-117045836D01*
X133074780Y-117177787D01*
X133054767Y-117243763D01*
X132957267Y-117426172D01*
X132826054Y-117586054D01*
X132666172Y-117717267D01*
X132483763Y-117814767D01*
X132417787Y-117834780D01*
X132285836Y-117874807D01*
X132208707Y-117882404D01*
X132131580Y-117890000D01*
X132028420Y-117890000D01*
X131951293Y-117882404D01*
X131874164Y-117874807D01*
X131742213Y-117834780D01*
X131676237Y-117814767D01*
X131493828Y-117717267D01*
X131333946Y-117586054D01*
X131202733Y-117426172D01*
X131105233Y-117243763D01*
X131085220Y-117177787D01*
X131045193Y-117045836D01*
X131024920Y-116840000D01*
X131045193Y-116634164D01*
X131105233Y-116436238D01*
X131105233Y-116436237D01*
X131202733Y-116253828D01*
X131333946Y-116093946D01*
X131493828Y-115962733D01*
X131676237Y-115865233D01*
X131742213Y-115845220D01*
X131874164Y-115805193D01*
X131951293Y-115797596D01*
X132028420Y-115790000D01*
X132131580Y-115790000D01*
X132208707Y-115797596D01*
X132208707Y-115797596D01*
G37*
G36*
X109348707Y-113257596D02*
X109425836Y-113265193D01*
X109557787Y-113305220D01*
X109623763Y-113325233D01*
X109806172Y-113422733D01*
X109966054Y-113553946D01*
X110097267Y-113713828D01*
X110194767Y-113896237D01*
X110194767Y-113896238D01*
X110254807Y-114094164D01*
X110275080Y-114300000D01*
X110254807Y-114505836D01*
X110214780Y-114637787D01*
X110194767Y-114703763D01*
X110097267Y-114886172D01*
X109966054Y-115046054D01*
X109806172Y-115177267D01*
X109623763Y-115274767D01*
X109557787Y-115294780D01*
X109425836Y-115334807D01*
X109348707Y-115342403D01*
X109271580Y-115350000D01*
X109168420Y-115350000D01*
X109091293Y-115342403D01*
X109014164Y-115334807D01*
X108882213Y-115294780D01*
X108816237Y-115274767D01*
X108633828Y-115177267D01*
X108473946Y-115046054D01*
X108342733Y-114886172D01*
X108245233Y-114703763D01*
X108225220Y-114637787D01*
X108185193Y-114505836D01*
X108164920Y-114300000D01*
X108185193Y-114094164D01*
X108245233Y-113896238D01*
X108245233Y-113896237D01*
X108342733Y-113713828D01*
X108473946Y-113553946D01*
X108633828Y-113422733D01*
X108816237Y-113325233D01*
X108882213Y-113305220D01*
X109014164Y-113265193D01*
X109091293Y-113257596D01*
X109168420Y-113250000D01*
X109271580Y-113250000D01*
X109348707Y-113257596D01*
X109348707Y-113257596D01*
G37*
G36*
X135383707Y-113257596D02*
X135460836Y-113265193D01*
X135592787Y-113305220D01*
X135658763Y-113325233D01*
X135841172Y-113422733D01*
X136001054Y-113553946D01*
X136132267Y-113713828D01*
X136229767Y-113896237D01*
X136229767Y-113896238D01*
X136289807Y-114094164D01*
X136310080Y-114300000D01*
X136289807Y-114505836D01*
X136249780Y-114637787D01*
X136229767Y-114703763D01*
X136132267Y-114886172D01*
X136001054Y-115046054D01*
X135841172Y-115177267D01*
X135658763Y-115274767D01*
X135592787Y-115294780D01*
X135460836Y-115334807D01*
X135383707Y-115342403D01*
X135306580Y-115350000D01*
X135203420Y-115350000D01*
X135126293Y-115342403D01*
X135049164Y-115334807D01*
X134917213Y-115294780D01*
X134851237Y-115274767D01*
X134668828Y-115177267D01*
X134508946Y-115046054D01*
X134377733Y-114886172D01*
X134280233Y-114703763D01*
X134260220Y-114637787D01*
X134220193Y-114505836D01*
X134199920Y-114300000D01*
X134220193Y-114094164D01*
X134280233Y-113896238D01*
X134280233Y-113896237D01*
X134377733Y-113713828D01*
X134508946Y-113553946D01*
X134668828Y-113422733D01*
X134851237Y-113325233D01*
X134917213Y-113305220D01*
X135049164Y-113265193D01*
X135126293Y-113257596D01*
X135203420Y-113250000D01*
X135306580Y-113250000D01*
X135383707Y-113257596D01*
X135383707Y-113257596D01*
G37*
G36*
X132208707Y-113257596D02*
X132285836Y-113265193D01*
X132417787Y-113305220D01*
X132483763Y-113325233D01*
X132666172Y-113422733D01*
X132826054Y-113553946D01*
X132957267Y-113713828D01*
X133054767Y-113896237D01*
X133054767Y-113896238D01*
X133114807Y-114094164D01*
X133135080Y-114300000D01*
X133114807Y-114505836D01*
X133074780Y-114637787D01*
X133054767Y-114703763D01*
X132957267Y-114886172D01*
X132826054Y-115046054D01*
X132666172Y-115177267D01*
X132483763Y-115274767D01*
X132417787Y-115294780D01*
X132285836Y-115334807D01*
X132208707Y-115342403D01*
X132131580Y-115350000D01*
X132028420Y-115350000D01*
X131951293Y-115342403D01*
X131874164Y-115334807D01*
X131742213Y-115294780D01*
X131676237Y-115274767D01*
X131493828Y-115177267D01*
X131333946Y-115046054D01*
X131202733Y-114886172D01*
X131105233Y-114703763D01*
X131085220Y-114637787D01*
X131045193Y-114505836D01*
X131024920Y-114300000D01*
X131045193Y-114094164D01*
X131105233Y-113896238D01*
X131105233Y-113896237D01*
X131202733Y-113713828D01*
X131333946Y-113553946D01*
X131493828Y-113422733D01*
X131676237Y-113325233D01*
X131742213Y-113305220D01*
X131874164Y-113265193D01*
X131951293Y-113257596D01*
X132028420Y-113250000D01*
X132131580Y-113250000D01*
X132208707Y-113257596D01*
X132208707Y-113257596D01*
G37*
G36*
X99196393Y-110648553D02*
X99305872Y-110670330D01*
X99615252Y-110798479D01*
X99893687Y-110984523D01*
X100130477Y-111221313D01*
X100316521Y-111499748D01*
X100444670Y-111809128D01*
X100510000Y-112137565D01*
X100510000Y-112472435D01*
X100444670Y-112800872D01*
X100316521Y-113110252D01*
X100130477Y-113388687D01*
X99893687Y-113625477D01*
X99615252Y-113811521D01*
X99305872Y-113939670D01*
X99196393Y-113961447D01*
X98977437Y-114005000D01*
X98642563Y-114005000D01*
X98423607Y-113961447D01*
X98314128Y-113939670D01*
X98004748Y-113811521D01*
X97726313Y-113625477D01*
X97489523Y-113388687D01*
X97303479Y-113110252D01*
X97175330Y-112800872D01*
X97110000Y-112472435D01*
X97110000Y-112137565D01*
X97175330Y-111809128D01*
X97303479Y-111499748D01*
X97489523Y-111221313D01*
X97726313Y-110984523D01*
X98004748Y-110798479D01*
X98314128Y-110670330D01*
X98423607Y-110648553D01*
X98642563Y-110605000D01*
X98977437Y-110605000D01*
X99196393Y-110648553D01*
X99196393Y-110648553D01*
G37*
G36*
X104876393Y-110648553D02*
X104985872Y-110670330D01*
X105295252Y-110798479D01*
X105573687Y-110984523D01*
X105810477Y-111221313D01*
X105996521Y-111499748D01*
X106124670Y-111809128D01*
X106190000Y-112137565D01*
X106190000Y-112472435D01*
X106124670Y-112800872D01*
X105996521Y-113110252D01*
X105810477Y-113388687D01*
X105573687Y-113625477D01*
X105295252Y-113811521D01*
X104985872Y-113939670D01*
X104876393Y-113961447D01*
X104657437Y-114005000D01*
X104322563Y-114005000D01*
X104103607Y-113961447D01*
X103994128Y-113939670D01*
X103684748Y-113811521D01*
X103406313Y-113625477D01*
X103169523Y-113388687D01*
X102983479Y-113110252D01*
X102855330Y-112800872D01*
X102790000Y-112472435D01*
X102790000Y-112137565D01*
X102855330Y-111809128D01*
X102983479Y-111499748D01*
X103169523Y-111221313D01*
X103406313Y-110984523D01*
X103684748Y-110798479D01*
X103994128Y-110670330D01*
X104103607Y-110648553D01*
X104322563Y-110605000D01*
X104657437Y-110605000D01*
X104876393Y-110648553D01*
X104876393Y-110648553D01*
G37*
G36*
X135383707Y-110717596D02*
X135460836Y-110725193D01*
X135592787Y-110765220D01*
X135658763Y-110785233D01*
X135841172Y-110882733D01*
X136001054Y-111013946D01*
X136132267Y-111173828D01*
X136229767Y-111356237D01*
X136229767Y-111356238D01*
X136289807Y-111554164D01*
X136310080Y-111760000D01*
X136289807Y-111965836D01*
X136249780Y-112097787D01*
X136229767Y-112163763D01*
X136132267Y-112346172D01*
X136001054Y-112506054D01*
X135841172Y-112637267D01*
X135658763Y-112734767D01*
X135592787Y-112754780D01*
X135460836Y-112794807D01*
X135383707Y-112802403D01*
X135306580Y-112810000D01*
X135203420Y-112810000D01*
X135126293Y-112802403D01*
X135049164Y-112794807D01*
X134917213Y-112754780D01*
X134851237Y-112734767D01*
X134668828Y-112637267D01*
X134508946Y-112506054D01*
X134377733Y-112346172D01*
X134280233Y-112163763D01*
X134260220Y-112097787D01*
X134220193Y-111965836D01*
X134199920Y-111760000D01*
X134220193Y-111554164D01*
X134280233Y-111356238D01*
X134280233Y-111356237D01*
X134377733Y-111173828D01*
X134508946Y-111013946D01*
X134668828Y-110882733D01*
X134851237Y-110785233D01*
X134917213Y-110765220D01*
X135049164Y-110725193D01*
X135126293Y-110717596D01*
X135203420Y-110710000D01*
X135306580Y-110710000D01*
X135383707Y-110717596D01*
X135383707Y-110717596D01*
G37*
G36*
X132208707Y-110717596D02*
X132285836Y-110725193D01*
X132417787Y-110765220D01*
X132483763Y-110785233D01*
X132666172Y-110882733D01*
X132826054Y-111013946D01*
X132957267Y-111173828D01*
X133054767Y-111356237D01*
X133054767Y-111356238D01*
X133114807Y-111554164D01*
X133135080Y-111760000D01*
X133114807Y-111965836D01*
X133074780Y-112097787D01*
X133054767Y-112163763D01*
X132957267Y-112346172D01*
X132826054Y-112506054D01*
X132666172Y-112637267D01*
X132483763Y-112734767D01*
X132417787Y-112754780D01*
X132285836Y-112794807D01*
X132208707Y-112802403D01*
X132131580Y-112810000D01*
X132028420Y-112810000D01*
X131951293Y-112802403D01*
X131874164Y-112794807D01*
X131742213Y-112754780D01*
X131676237Y-112734767D01*
X131493828Y-112637267D01*
X131333946Y-112506054D01*
X131202733Y-112346172D01*
X131105233Y-112163763D01*
X131085220Y-112097787D01*
X131045193Y-111965836D01*
X131024920Y-111760000D01*
X131045193Y-111554164D01*
X131105233Y-111356238D01*
X131105233Y-111356237D01*
X131202733Y-111173828D01*
X131333946Y-111013946D01*
X131493828Y-110882733D01*
X131676237Y-110785233D01*
X131742213Y-110765220D01*
X131874164Y-110725193D01*
X131951293Y-110717596D01*
X132028420Y-110710000D01*
X132131580Y-110710000D01*
X132208707Y-110717596D01*
X132208707Y-110717596D01*
G37*
G36*
X109348707Y-110717596D02*
X109425836Y-110725193D01*
X109557787Y-110765220D01*
X109623763Y-110785233D01*
X109806172Y-110882733D01*
X109966054Y-111013946D01*
X110097267Y-111173828D01*
X110194767Y-111356237D01*
X110194767Y-111356238D01*
X110254807Y-111554164D01*
X110275080Y-111760000D01*
X110254807Y-111965836D01*
X110214780Y-112097787D01*
X110194767Y-112163763D01*
X110097267Y-112346172D01*
X109966054Y-112506054D01*
X109806172Y-112637267D01*
X109623763Y-112734767D01*
X109557787Y-112754780D01*
X109425836Y-112794807D01*
X109348707Y-112802403D01*
X109271580Y-112810000D01*
X109168420Y-112810000D01*
X109091293Y-112802403D01*
X109014164Y-112794807D01*
X108882213Y-112754780D01*
X108816237Y-112734767D01*
X108633828Y-112637267D01*
X108473946Y-112506054D01*
X108342733Y-112346172D01*
X108245233Y-112163763D01*
X108225220Y-112097787D01*
X108185193Y-111965836D01*
X108164920Y-111760000D01*
X108185193Y-111554164D01*
X108245233Y-111356238D01*
X108245233Y-111356237D01*
X108342733Y-111173828D01*
X108473946Y-111013946D01*
X108633828Y-110882733D01*
X108816237Y-110785233D01*
X108882213Y-110765220D01*
X109014164Y-110725193D01*
X109091293Y-110717596D01*
X109168420Y-110710000D01*
X109271580Y-110710000D01*
X109348707Y-110717596D01*
X109348707Y-110717596D01*
G37*
G36*
X109348707Y-108177597D02*
X109425836Y-108185193D01*
X109557787Y-108225220D01*
X109623763Y-108245233D01*
X109806172Y-108342733D01*
X109966054Y-108473946D01*
X110097267Y-108633828D01*
X110194767Y-108816237D01*
X110194767Y-108816238D01*
X110254807Y-109014164D01*
X110275080Y-109220000D01*
X110254807Y-109425836D01*
X110214780Y-109557787D01*
X110194767Y-109623763D01*
X110097267Y-109806172D01*
X109966054Y-109966054D01*
X109806172Y-110097267D01*
X109623763Y-110194767D01*
X109557787Y-110214780D01*
X109425836Y-110254807D01*
X109348707Y-110262404D01*
X109271580Y-110270000D01*
X109168420Y-110270000D01*
X109091293Y-110262404D01*
X109014164Y-110254807D01*
X108882213Y-110214780D01*
X108816237Y-110194767D01*
X108633828Y-110097267D01*
X108473946Y-109966054D01*
X108342733Y-109806172D01*
X108245233Y-109623763D01*
X108225220Y-109557787D01*
X108185193Y-109425836D01*
X108164920Y-109220000D01*
X108185193Y-109014164D01*
X108245233Y-108816238D01*
X108245233Y-108816237D01*
X108342733Y-108633828D01*
X108473946Y-108473946D01*
X108633828Y-108342733D01*
X108816237Y-108245233D01*
X108882213Y-108225220D01*
X109014164Y-108185193D01*
X109091293Y-108177597D01*
X109168420Y-108170000D01*
X109271580Y-108170000D01*
X109348707Y-108177597D01*
X109348707Y-108177597D01*
G37*
G36*
X132208707Y-108177597D02*
X132285836Y-108185193D01*
X132417787Y-108225220D01*
X132483763Y-108245233D01*
X132666172Y-108342733D01*
X132826054Y-108473946D01*
X132957267Y-108633828D01*
X133054767Y-108816237D01*
X133054767Y-108816238D01*
X133114807Y-109014164D01*
X133135080Y-109220000D01*
X133114807Y-109425836D01*
X133074780Y-109557787D01*
X133054767Y-109623763D01*
X132957267Y-109806172D01*
X132826054Y-109966054D01*
X132666172Y-110097267D01*
X132483763Y-110194767D01*
X132417787Y-110214780D01*
X132285836Y-110254807D01*
X132208707Y-110262404D01*
X132131580Y-110270000D01*
X132028420Y-110270000D01*
X131951293Y-110262404D01*
X131874164Y-110254807D01*
X131742213Y-110214780D01*
X131676237Y-110194767D01*
X131493828Y-110097267D01*
X131333946Y-109966054D01*
X131202733Y-109806172D01*
X131105233Y-109623763D01*
X131085220Y-109557787D01*
X131045193Y-109425836D01*
X131024920Y-109220000D01*
X131045193Y-109014164D01*
X131105233Y-108816238D01*
X131105233Y-108816237D01*
X131202733Y-108633828D01*
X131333946Y-108473946D01*
X131493828Y-108342733D01*
X131676237Y-108245233D01*
X131742213Y-108225220D01*
X131874164Y-108185193D01*
X131951293Y-108177597D01*
X132028420Y-108170000D01*
X132131580Y-108170000D01*
X132208707Y-108177597D01*
X132208707Y-108177597D01*
G37*
G36*
X135383707Y-108177597D02*
X135460836Y-108185193D01*
X135592787Y-108225220D01*
X135658763Y-108245233D01*
X135841172Y-108342733D01*
X136001054Y-108473946D01*
X136132267Y-108633828D01*
X136229767Y-108816237D01*
X136229767Y-108816238D01*
X136289807Y-109014164D01*
X136310080Y-109220000D01*
X136289807Y-109425836D01*
X136249780Y-109557787D01*
X136229767Y-109623763D01*
X136132267Y-109806172D01*
X136001054Y-109966054D01*
X135841172Y-110097267D01*
X135658763Y-110194767D01*
X135592787Y-110214780D01*
X135460836Y-110254807D01*
X135383707Y-110262404D01*
X135306580Y-110270000D01*
X135203420Y-110270000D01*
X135126293Y-110262404D01*
X135049164Y-110254807D01*
X134917213Y-110214780D01*
X134851237Y-110194767D01*
X134668828Y-110097267D01*
X134508946Y-109966054D01*
X134377733Y-109806172D01*
X134280233Y-109623763D01*
X134260220Y-109557787D01*
X134220193Y-109425836D01*
X134199920Y-109220000D01*
X134220193Y-109014164D01*
X134280233Y-108816238D01*
X134280233Y-108816237D01*
X134377733Y-108633828D01*
X134508946Y-108473946D01*
X134668828Y-108342733D01*
X134851237Y-108245233D01*
X134917213Y-108225220D01*
X135049164Y-108185193D01*
X135126293Y-108177597D01*
X135203420Y-108170000D01*
X135306580Y-108170000D01*
X135383707Y-108177597D01*
X135383707Y-108177597D01*
G37*
G36*
X104279452Y-108294127D02*
X104417105Y-108321508D01*
X104589994Y-108393121D01*
X104745590Y-108497087D01*
X104877913Y-108629410D01*
X104981879Y-108785006D01*
X105053492Y-108957895D01*
X105090000Y-109141433D01*
X105090000Y-109328567D01*
X105053492Y-109512105D01*
X104981879Y-109684994D01*
X104877913Y-109840590D01*
X104745590Y-109972913D01*
X104589994Y-110076879D01*
X104417105Y-110148492D01*
X104279451Y-110175873D01*
X104233568Y-110185000D01*
X104046432Y-110185000D01*
X104000549Y-110175873D01*
X103862895Y-110148492D01*
X103690006Y-110076879D01*
X103534410Y-109972913D01*
X103402087Y-109840590D01*
X103298121Y-109684994D01*
X103226508Y-109512105D01*
X103190000Y-109328567D01*
X103190000Y-109141433D01*
X103226508Y-108957895D01*
X103298121Y-108785006D01*
X103402087Y-108629410D01*
X103534410Y-108497087D01*
X103690006Y-108393121D01*
X103862895Y-108321508D01*
X104000548Y-108294127D01*
X104046432Y-108285000D01*
X104233568Y-108285000D01*
X104279452Y-108294127D01*
X104279452Y-108294127D01*
G37*
G36*
X101659452Y-108294127D02*
X101797105Y-108321508D01*
X101969994Y-108393121D01*
X102125590Y-108497087D01*
X102257913Y-108629410D01*
X102361879Y-108785006D01*
X102433492Y-108957895D01*
X102470000Y-109141433D01*
X102470000Y-109328567D01*
X102433492Y-109512105D01*
X102361879Y-109684994D01*
X102257913Y-109840590D01*
X102125590Y-109972913D01*
X101969994Y-110076879D01*
X101797105Y-110148492D01*
X101659451Y-110175873D01*
X101613568Y-110185000D01*
X101426432Y-110185000D01*
X101380549Y-110175873D01*
X101242895Y-110148492D01*
X101070006Y-110076879D01*
X100914410Y-109972913D01*
X100782087Y-109840590D01*
X100678121Y-109684994D01*
X100606508Y-109512105D01*
X100570000Y-109328567D01*
X100570000Y-109141433D01*
X100606508Y-108957895D01*
X100678121Y-108785006D01*
X100782087Y-108629410D01*
X100914410Y-108497087D01*
X101070006Y-108393121D01*
X101242895Y-108321508D01*
X101380548Y-108294127D01*
X101426432Y-108285000D01*
X101613568Y-108285000D01*
X101659452Y-108294127D01*
X101659452Y-108294127D01*
G37*
G36*
X109348707Y-105637596D02*
X109425836Y-105645193D01*
X109557063Y-105685000D01*
X109623763Y-105705233D01*
X109806172Y-105802733D01*
X109966054Y-105933946D01*
X110097267Y-106093828D01*
X110194767Y-106276237D01*
X110194767Y-106276238D01*
X110254807Y-106474164D01*
X110275080Y-106680000D01*
X110254807Y-106885836D01*
X110216505Y-107012102D01*
X110194767Y-107083763D01*
X110097267Y-107266172D01*
X109966054Y-107426054D01*
X109806172Y-107557267D01*
X109623763Y-107654767D01*
X109557787Y-107674780D01*
X109425836Y-107714807D01*
X109348707Y-107722404D01*
X109271580Y-107730000D01*
X109168420Y-107730000D01*
X109091293Y-107722404D01*
X109014164Y-107714807D01*
X108882213Y-107674780D01*
X108816237Y-107654767D01*
X108633828Y-107557267D01*
X108473946Y-107426054D01*
X108342733Y-107266172D01*
X108245233Y-107083763D01*
X108223495Y-107012102D01*
X108185193Y-106885836D01*
X108164920Y-106680000D01*
X108185193Y-106474164D01*
X108245233Y-106276238D01*
X108245233Y-106276237D01*
X108342733Y-106093828D01*
X108473946Y-105933946D01*
X108633828Y-105802733D01*
X108816237Y-105705233D01*
X108882937Y-105685000D01*
X109014164Y-105645193D01*
X109091293Y-105637596D01*
X109168420Y-105630000D01*
X109271580Y-105630000D01*
X109348707Y-105637596D01*
X109348707Y-105637596D01*
G37*
G36*
X135383707Y-105637596D02*
X135460836Y-105645193D01*
X135592063Y-105685000D01*
X135658763Y-105705233D01*
X135841172Y-105802733D01*
X136001054Y-105933946D01*
X136132267Y-106093828D01*
X136229767Y-106276237D01*
X136229767Y-106276238D01*
X136289807Y-106474164D01*
X136310080Y-106680000D01*
X136289807Y-106885836D01*
X136251505Y-107012102D01*
X136229767Y-107083763D01*
X136132267Y-107266172D01*
X136001054Y-107426054D01*
X135841172Y-107557267D01*
X135658763Y-107654767D01*
X135592787Y-107674780D01*
X135460836Y-107714807D01*
X135383707Y-107722404D01*
X135306580Y-107730000D01*
X135203420Y-107730000D01*
X135126293Y-107722404D01*
X135049164Y-107714807D01*
X134917213Y-107674780D01*
X134851237Y-107654767D01*
X134668828Y-107557267D01*
X134508946Y-107426054D01*
X134377733Y-107266172D01*
X134280233Y-107083763D01*
X134258495Y-107012102D01*
X134220193Y-106885836D01*
X134199920Y-106680000D01*
X134220193Y-106474164D01*
X134280233Y-106276238D01*
X134280233Y-106276237D01*
X134377733Y-106093828D01*
X134508946Y-105933946D01*
X134668828Y-105802733D01*
X134851237Y-105705233D01*
X134917937Y-105685000D01*
X135049164Y-105645193D01*
X135126293Y-105637596D01*
X135203420Y-105630000D01*
X135306580Y-105630000D01*
X135383707Y-105637596D01*
X135383707Y-105637596D01*
G37*
G36*
X132208707Y-105637596D02*
X132285836Y-105645193D01*
X132417063Y-105685000D01*
X132483763Y-105705233D01*
X132666172Y-105802733D01*
X132826054Y-105933946D01*
X132957267Y-106093828D01*
X133054767Y-106276237D01*
X133054767Y-106276238D01*
X133114807Y-106474164D01*
X133135080Y-106680000D01*
X133114807Y-106885836D01*
X133076505Y-107012102D01*
X133054767Y-107083763D01*
X132957267Y-107266172D01*
X132826054Y-107426054D01*
X132666172Y-107557267D01*
X132483763Y-107654767D01*
X132417787Y-107674780D01*
X132285836Y-107714807D01*
X132208707Y-107722404D01*
X132131580Y-107730000D01*
X132028420Y-107730000D01*
X131951293Y-107722404D01*
X131874164Y-107714807D01*
X131742213Y-107674780D01*
X131676237Y-107654767D01*
X131493828Y-107557267D01*
X131333946Y-107426054D01*
X131202733Y-107266172D01*
X131105233Y-107083763D01*
X131083495Y-107012102D01*
X131045193Y-106885836D01*
X131024920Y-106680000D01*
X131045193Y-106474164D01*
X131105233Y-106276238D01*
X131105233Y-106276237D01*
X131202733Y-106093828D01*
X131333946Y-105933946D01*
X131493828Y-105802733D01*
X131676237Y-105705233D01*
X131742937Y-105685000D01*
X131874164Y-105645193D01*
X131951293Y-105637596D01*
X132028420Y-105630000D01*
X132131580Y-105630000D01*
X132208707Y-105637596D01*
X132208707Y-105637596D01*
G37*
G36*
X101659452Y-103794127D02*
X101797105Y-103821508D01*
X101969994Y-103893121D01*
X102125590Y-103997087D01*
X102257913Y-104129410D01*
X102361879Y-104285006D01*
X102433492Y-104457895D01*
X102470000Y-104641433D01*
X102470000Y-104828567D01*
X102433492Y-105012105D01*
X102361879Y-105184994D01*
X102257913Y-105340590D01*
X102125590Y-105472913D01*
X101969994Y-105576879D01*
X101867054Y-105619518D01*
X101845449Y-105631067D01*
X101826507Y-105646612D01*
X101810962Y-105665554D01*
X101799411Y-105687165D01*
X101792298Y-105710614D01*
X101789896Y-105735000D01*
X101792298Y-105759387D01*
X101799411Y-105782836D01*
X101810963Y-105804447D01*
X101826508Y-105823389D01*
X101845450Y-105838934D01*
X101867054Y-105850482D01*
X101969994Y-105893121D01*
X102125590Y-105997087D01*
X102257913Y-106129410D01*
X102361879Y-106285006D01*
X102433492Y-106457895D01*
X102470000Y-106641433D01*
X102470000Y-106828567D01*
X102433492Y-107012105D01*
X102361879Y-107184994D01*
X102257913Y-107340590D01*
X102125590Y-107472913D01*
X101969994Y-107576879D01*
X101797105Y-107648492D01*
X101659452Y-107675873D01*
X101613568Y-107685000D01*
X101426432Y-107685000D01*
X101380548Y-107675873D01*
X101242895Y-107648492D01*
X101070006Y-107576879D01*
X100914410Y-107472913D01*
X100782087Y-107340590D01*
X100678121Y-107184994D01*
X100606508Y-107012105D01*
X100570000Y-106828567D01*
X100570000Y-106641433D01*
X100606508Y-106457895D01*
X100678121Y-106285006D01*
X100782087Y-106129410D01*
X100914410Y-105997087D01*
X101070006Y-105893121D01*
X101172946Y-105850482D01*
X101194551Y-105838933D01*
X101213493Y-105823388D01*
X101229038Y-105804446D01*
X101240589Y-105782835D01*
X101247702Y-105759386D01*
X101250104Y-105735000D01*
X101247702Y-105710613D01*
X101240589Y-105687164D01*
X101229037Y-105665553D01*
X101213492Y-105646611D01*
X101194550Y-105631066D01*
X101172946Y-105619518D01*
X101070006Y-105576879D01*
X100914410Y-105472913D01*
X100782087Y-105340590D01*
X100678121Y-105184994D01*
X100606508Y-105012105D01*
X100570000Y-104828567D01*
X100570000Y-104641433D01*
X100606508Y-104457895D01*
X100678121Y-104285006D01*
X100782087Y-104129410D01*
X100914410Y-103997087D01*
X101070006Y-103893121D01*
X101242895Y-103821508D01*
X101380549Y-103794127D01*
X101426432Y-103785000D01*
X101613568Y-103785000D01*
X101659452Y-103794127D01*
X101659452Y-103794127D01*
G37*
G36*
X104279452Y-103794127D02*
X104417105Y-103821508D01*
X104589994Y-103893121D01*
X104745590Y-103997087D01*
X104877913Y-104129410D01*
X104981879Y-104285006D01*
X105053492Y-104457895D01*
X105090000Y-104641433D01*
X105090000Y-104828567D01*
X105053492Y-105012105D01*
X104981879Y-105184994D01*
X104877913Y-105340590D01*
X104745590Y-105472913D01*
X104589994Y-105576879D01*
X104487054Y-105619518D01*
X104465449Y-105631067D01*
X104446507Y-105646612D01*
X104430962Y-105665554D01*
X104419411Y-105687165D01*
X104412298Y-105710614D01*
X104409896Y-105735000D01*
X104412298Y-105759387D01*
X104419411Y-105782836D01*
X104430963Y-105804447D01*
X104446508Y-105823389D01*
X104465450Y-105838934D01*
X104487054Y-105850482D01*
X104589994Y-105893121D01*
X104745590Y-105997087D01*
X104877913Y-106129410D01*
X104981879Y-106285006D01*
X105053492Y-106457895D01*
X105090000Y-106641433D01*
X105090000Y-106828567D01*
X105053492Y-107012105D01*
X104981879Y-107184994D01*
X104877913Y-107340590D01*
X104745590Y-107472913D01*
X104589994Y-107576879D01*
X104417105Y-107648492D01*
X104279452Y-107675873D01*
X104233568Y-107685000D01*
X104046432Y-107685000D01*
X104000548Y-107675873D01*
X103862895Y-107648492D01*
X103690006Y-107576879D01*
X103534410Y-107472913D01*
X103402087Y-107340590D01*
X103298121Y-107184994D01*
X103226508Y-107012105D01*
X103190000Y-106828567D01*
X103190000Y-106641433D01*
X103226508Y-106457895D01*
X103298121Y-106285006D01*
X103402087Y-106129410D01*
X103534410Y-105997087D01*
X103690006Y-105893121D01*
X103792946Y-105850482D01*
X103814551Y-105838933D01*
X103833493Y-105823388D01*
X103849038Y-105804446D01*
X103860589Y-105782835D01*
X103867702Y-105759386D01*
X103870104Y-105735000D01*
X103867702Y-105710613D01*
X103860589Y-105687164D01*
X103849037Y-105665553D01*
X103833492Y-105646611D01*
X103814550Y-105631066D01*
X103792946Y-105619518D01*
X103690006Y-105576879D01*
X103534410Y-105472913D01*
X103402087Y-105340590D01*
X103298121Y-105184994D01*
X103226508Y-105012105D01*
X103190000Y-104828567D01*
X103190000Y-104641433D01*
X103226508Y-104457895D01*
X103298121Y-104285006D01*
X103402087Y-104129410D01*
X103534410Y-103997087D01*
X103690006Y-103893121D01*
X103862895Y-103821508D01*
X104000549Y-103794127D01*
X104046432Y-103785000D01*
X104233568Y-103785000D01*
X104279452Y-103794127D01*
X104279452Y-103794127D01*
G37*
G36*
X135383707Y-103097596D02*
X135460836Y-103105193D01*
X135592787Y-103145220D01*
X135658763Y-103165233D01*
X135841172Y-103262733D01*
X136001054Y-103393946D01*
X136132267Y-103553828D01*
X136229767Y-103736237D01*
X136229767Y-103736238D01*
X136289807Y-103934164D01*
X136310080Y-104140000D01*
X136289807Y-104345836D01*
X136255814Y-104457895D01*
X136229767Y-104543763D01*
X136132267Y-104726172D01*
X136001054Y-104886054D01*
X135841172Y-105017267D01*
X135658763Y-105114767D01*
X135592787Y-105134780D01*
X135460836Y-105174807D01*
X135383707Y-105182403D01*
X135306580Y-105190000D01*
X135203420Y-105190000D01*
X135126293Y-105182404D01*
X135049164Y-105174807D01*
X134917213Y-105134780D01*
X134851237Y-105114767D01*
X134668828Y-105017267D01*
X134508946Y-104886054D01*
X134377733Y-104726172D01*
X134280233Y-104543763D01*
X134254186Y-104457895D01*
X134220193Y-104345836D01*
X134199920Y-104140000D01*
X134220193Y-103934164D01*
X134280233Y-103736238D01*
X134280233Y-103736237D01*
X134377733Y-103553828D01*
X134508946Y-103393946D01*
X134668828Y-103262733D01*
X134851237Y-103165233D01*
X134917213Y-103145220D01*
X135049164Y-103105193D01*
X135126293Y-103097596D01*
X135203420Y-103090000D01*
X135306580Y-103090000D01*
X135383707Y-103097596D01*
X135383707Y-103097596D01*
G37*
G36*
X132208707Y-103097596D02*
X132285836Y-103105193D01*
X132417787Y-103145220D01*
X132483763Y-103165233D01*
X132666172Y-103262733D01*
X132826054Y-103393946D01*
X132957267Y-103553828D01*
X133054767Y-103736237D01*
X133054767Y-103736238D01*
X133114807Y-103934164D01*
X133135080Y-104140000D01*
X133114807Y-104345836D01*
X133080814Y-104457895D01*
X133054767Y-104543763D01*
X132957267Y-104726172D01*
X132826054Y-104886054D01*
X132666172Y-105017267D01*
X132483763Y-105114767D01*
X132417787Y-105134780D01*
X132285836Y-105174807D01*
X132208707Y-105182403D01*
X132131580Y-105190000D01*
X132028420Y-105190000D01*
X131951293Y-105182404D01*
X131874164Y-105174807D01*
X131742213Y-105134780D01*
X131676237Y-105114767D01*
X131493828Y-105017267D01*
X131333946Y-104886054D01*
X131202733Y-104726172D01*
X131105233Y-104543763D01*
X131079186Y-104457895D01*
X131045193Y-104345836D01*
X131024920Y-104140000D01*
X131045193Y-103934164D01*
X131105233Y-103736238D01*
X131105233Y-103736237D01*
X131202733Y-103553828D01*
X131333946Y-103393946D01*
X131493828Y-103262733D01*
X131676237Y-103165233D01*
X131742213Y-103145220D01*
X131874164Y-103105193D01*
X131951293Y-103097596D01*
X132028420Y-103090000D01*
X132131580Y-103090000D01*
X132208707Y-103097596D01*
X132208707Y-103097596D01*
G37*
G36*
X109348707Y-103097596D02*
X109425836Y-103105193D01*
X109557787Y-103145220D01*
X109623763Y-103165233D01*
X109806172Y-103262733D01*
X109966054Y-103393946D01*
X110097267Y-103553828D01*
X110194767Y-103736237D01*
X110194767Y-103736238D01*
X110254807Y-103934164D01*
X110275080Y-104140000D01*
X110254807Y-104345836D01*
X110220814Y-104457895D01*
X110194767Y-104543763D01*
X110097267Y-104726172D01*
X109966054Y-104886054D01*
X109806172Y-105017267D01*
X109623763Y-105114767D01*
X109557787Y-105134780D01*
X109425836Y-105174807D01*
X109348707Y-105182403D01*
X109271580Y-105190000D01*
X109168420Y-105190000D01*
X109091293Y-105182404D01*
X109014164Y-105174807D01*
X108882213Y-105134780D01*
X108816237Y-105114767D01*
X108633828Y-105017267D01*
X108473946Y-104886054D01*
X108342733Y-104726172D01*
X108245233Y-104543763D01*
X108219186Y-104457895D01*
X108185193Y-104345836D01*
X108164920Y-104140000D01*
X108185193Y-103934164D01*
X108245233Y-103736238D01*
X108245233Y-103736237D01*
X108342733Y-103553828D01*
X108473946Y-103393946D01*
X108633828Y-103262733D01*
X108816237Y-103165233D01*
X108882213Y-103145220D01*
X109014164Y-103105193D01*
X109091293Y-103097596D01*
X109168420Y-103090000D01*
X109271580Y-103090000D01*
X109348707Y-103097596D01*
X109348707Y-103097596D01*
G37*
G36*
X105090000Y-103185000D02*
X103190000Y-103185000D01*
X103190000Y-101285000D01*
X105090000Y-101285000D01*
X105090000Y-103185000D01*
X105090000Y-103185000D01*
G37*
G36*
X101659451Y-101294127D02*
X101797105Y-101321508D01*
X101969994Y-101393121D01*
X102125590Y-101497087D01*
X102257913Y-101629410D01*
X102361879Y-101785006D01*
X102433492Y-101957895D01*
X102470000Y-102141433D01*
X102470000Y-102328567D01*
X102433492Y-102512105D01*
X102361879Y-102684994D01*
X102257913Y-102840590D01*
X102125590Y-102972913D01*
X101969994Y-103076879D01*
X101797105Y-103148492D01*
X101659452Y-103175873D01*
X101613568Y-103185000D01*
X101426432Y-103185000D01*
X101380548Y-103175873D01*
X101242895Y-103148492D01*
X101070006Y-103076879D01*
X100914410Y-102972913D01*
X100782087Y-102840590D01*
X100678121Y-102684994D01*
X100606508Y-102512105D01*
X100570000Y-102328567D01*
X100570000Y-102141433D01*
X100606508Y-101957895D01*
X100678121Y-101785006D01*
X100782087Y-101629410D01*
X100914410Y-101497087D01*
X101070006Y-101393121D01*
X101242895Y-101321508D01*
X101380548Y-101294127D01*
X101426432Y-101285000D01*
X101613568Y-101285000D01*
X101659451Y-101294127D01*
X101659451Y-101294127D01*
G37*
G36*
X132208707Y-100557597D02*
X132285836Y-100565193D01*
X132417787Y-100605220D01*
X132483763Y-100625233D01*
X132666172Y-100722733D01*
X132826054Y-100853946D01*
X132957267Y-101013828D01*
X133054767Y-101196237D01*
X133054767Y-101196238D01*
X133114807Y-101394164D01*
X133135080Y-101600000D01*
X133114807Y-101805836D01*
X133074780Y-101937787D01*
X133054767Y-102003763D01*
X132957267Y-102186172D01*
X132826054Y-102346054D01*
X132666172Y-102477267D01*
X132483763Y-102574767D01*
X132417787Y-102594780D01*
X132285836Y-102634807D01*
X132208707Y-102642404D01*
X132131580Y-102650000D01*
X132028420Y-102650000D01*
X131951293Y-102642404D01*
X131874164Y-102634807D01*
X131742213Y-102594780D01*
X131676237Y-102574767D01*
X131493828Y-102477267D01*
X131333946Y-102346054D01*
X131202733Y-102186172D01*
X131105233Y-102003763D01*
X131085220Y-101937787D01*
X131045193Y-101805836D01*
X131024920Y-101600000D01*
X131045193Y-101394164D01*
X131105233Y-101196238D01*
X131105233Y-101196237D01*
X131202733Y-101013828D01*
X131333946Y-100853946D01*
X131493828Y-100722733D01*
X131676237Y-100625233D01*
X131742213Y-100605220D01*
X131874164Y-100565193D01*
X131951293Y-100557597D01*
X132028420Y-100550000D01*
X132131580Y-100550000D01*
X132208707Y-100557597D01*
X132208707Y-100557597D01*
G37*
G36*
X109348707Y-100557597D02*
X109425836Y-100565193D01*
X109557787Y-100605220D01*
X109623763Y-100625233D01*
X109806172Y-100722733D01*
X109966054Y-100853946D01*
X110097267Y-101013828D01*
X110194767Y-101196237D01*
X110194767Y-101196238D01*
X110254807Y-101394164D01*
X110275080Y-101600000D01*
X110254807Y-101805836D01*
X110214780Y-101937787D01*
X110194767Y-102003763D01*
X110097267Y-102186172D01*
X109966054Y-102346054D01*
X109806172Y-102477267D01*
X109623763Y-102574767D01*
X109557787Y-102594780D01*
X109425836Y-102634807D01*
X109348707Y-102642404D01*
X109271580Y-102650000D01*
X109168420Y-102650000D01*
X109091293Y-102642404D01*
X109014164Y-102634807D01*
X108882213Y-102594780D01*
X108816237Y-102574767D01*
X108633828Y-102477267D01*
X108473946Y-102346054D01*
X108342733Y-102186172D01*
X108245233Y-102003763D01*
X108225220Y-101937787D01*
X108185193Y-101805836D01*
X108164920Y-101600000D01*
X108185193Y-101394164D01*
X108245233Y-101196238D01*
X108245233Y-101196237D01*
X108342733Y-101013828D01*
X108473946Y-100853946D01*
X108633828Y-100722733D01*
X108816237Y-100625233D01*
X108882213Y-100605220D01*
X109014164Y-100565193D01*
X109091293Y-100557597D01*
X109168420Y-100550000D01*
X109271580Y-100550000D01*
X109348707Y-100557597D01*
X109348707Y-100557597D01*
G37*
G36*
X135383707Y-100557597D02*
X135460836Y-100565193D01*
X135592787Y-100605220D01*
X135658763Y-100625233D01*
X135841172Y-100722733D01*
X136001054Y-100853946D01*
X136132267Y-101013828D01*
X136229767Y-101196237D01*
X136229767Y-101196238D01*
X136289807Y-101394164D01*
X136310080Y-101600000D01*
X136289807Y-101805836D01*
X136249780Y-101937787D01*
X136229767Y-102003763D01*
X136132267Y-102186172D01*
X136001054Y-102346054D01*
X135841172Y-102477267D01*
X135658763Y-102574767D01*
X135592787Y-102594780D01*
X135460836Y-102634807D01*
X135383707Y-102642404D01*
X135306580Y-102650000D01*
X135203420Y-102650000D01*
X135126293Y-102642404D01*
X135049164Y-102634807D01*
X134917213Y-102594780D01*
X134851237Y-102574767D01*
X134668828Y-102477267D01*
X134508946Y-102346054D01*
X134377733Y-102186172D01*
X134280233Y-102003763D01*
X134260220Y-101937787D01*
X134220193Y-101805836D01*
X134199920Y-101600000D01*
X134220193Y-101394164D01*
X134280233Y-101196238D01*
X134280233Y-101196237D01*
X134377733Y-101013828D01*
X134508946Y-100853946D01*
X134668828Y-100722733D01*
X134851237Y-100625233D01*
X134917213Y-100605220D01*
X135049164Y-100565193D01*
X135126293Y-100557597D01*
X135203420Y-100550000D01*
X135306580Y-100550000D01*
X135383707Y-100557597D01*
X135383707Y-100557597D01*
G37*
G36*
X99196393Y-97508553D02*
X99305872Y-97530330D01*
X99615252Y-97658479D01*
X99893687Y-97844523D01*
X100130477Y-98081313D01*
X100316521Y-98359748D01*
X100444670Y-98669128D01*
X100510000Y-98997565D01*
X100510000Y-99332435D01*
X100444670Y-99660872D01*
X100316521Y-99970252D01*
X100130477Y-100248687D01*
X99893687Y-100485477D01*
X99615252Y-100671521D01*
X99305872Y-100799670D01*
X99196393Y-100821447D01*
X98977437Y-100865000D01*
X98642563Y-100865000D01*
X98423607Y-100821447D01*
X98314128Y-100799670D01*
X98004748Y-100671521D01*
X97726313Y-100485477D01*
X97489523Y-100248687D01*
X97303479Y-99970252D01*
X97175330Y-99660872D01*
X97110000Y-99332435D01*
X97110000Y-98997565D01*
X97175330Y-98669128D01*
X97303479Y-98359748D01*
X97489523Y-98081313D01*
X97726313Y-97844523D01*
X98004748Y-97658479D01*
X98314128Y-97530330D01*
X98423607Y-97508553D01*
X98642563Y-97465000D01*
X98977437Y-97465000D01*
X99196393Y-97508553D01*
X99196393Y-97508553D01*
G37*
G36*
X104876393Y-97508553D02*
X104985872Y-97530330D01*
X105295252Y-97658479D01*
X105573687Y-97844523D01*
X105810477Y-98081313D01*
X105996521Y-98359748D01*
X106124670Y-98669128D01*
X106190000Y-98997565D01*
X106190000Y-99332435D01*
X106124670Y-99660872D01*
X105996521Y-99970252D01*
X105810477Y-100248687D01*
X105573687Y-100485477D01*
X105295252Y-100671521D01*
X104985872Y-100799670D01*
X104876393Y-100821447D01*
X104657437Y-100865000D01*
X104322563Y-100865000D01*
X104103607Y-100821447D01*
X103994128Y-100799670D01*
X103684748Y-100671521D01*
X103406313Y-100485477D01*
X103169523Y-100248687D01*
X102983479Y-99970252D01*
X102855330Y-99660872D01*
X102790000Y-99332435D01*
X102790000Y-98997565D01*
X102855330Y-98669128D01*
X102983479Y-98359748D01*
X103169523Y-98081313D01*
X103406313Y-97844523D01*
X103684748Y-97658479D01*
X103994128Y-97530330D01*
X104103607Y-97508553D01*
X104322563Y-97465000D01*
X104657437Y-97465000D01*
X104876393Y-97508553D01*
X104876393Y-97508553D01*
G37*
G36*
X109348707Y-98017596D02*
X109425836Y-98025193D01*
X109557787Y-98065220D01*
X109623763Y-98085233D01*
X109806172Y-98182733D01*
X109966054Y-98313946D01*
X110097267Y-98473828D01*
X110194767Y-98656237D01*
X110214780Y-98722213D01*
X110254807Y-98854164D01*
X110275080Y-99060000D01*
X110254807Y-99265836D01*
X110234604Y-99332435D01*
X110194767Y-99463763D01*
X110097267Y-99646172D01*
X109966054Y-99806054D01*
X109806172Y-99937267D01*
X109623763Y-100034767D01*
X109557787Y-100054780D01*
X109425836Y-100094807D01*
X109348707Y-100102403D01*
X109271580Y-100110000D01*
X109168420Y-100110000D01*
X109091293Y-100102403D01*
X109014164Y-100094807D01*
X108882213Y-100054780D01*
X108816237Y-100034767D01*
X108633828Y-99937267D01*
X108473946Y-99806054D01*
X108342733Y-99646172D01*
X108245233Y-99463763D01*
X108205396Y-99332435D01*
X108185193Y-99265836D01*
X108164920Y-99060000D01*
X108185193Y-98854164D01*
X108225220Y-98722213D01*
X108245233Y-98656237D01*
X108342733Y-98473828D01*
X108473946Y-98313946D01*
X108633828Y-98182733D01*
X108816237Y-98085233D01*
X108882213Y-98065220D01*
X109014164Y-98025193D01*
X109091293Y-98017596D01*
X109168420Y-98010000D01*
X109271580Y-98010000D01*
X109348707Y-98017596D01*
X109348707Y-98017596D01*
G37*
G36*
X132208707Y-98017596D02*
X132285836Y-98025193D01*
X132417787Y-98065220D01*
X132483763Y-98085233D01*
X132666172Y-98182733D01*
X132826054Y-98313946D01*
X132957267Y-98473828D01*
X133054767Y-98656237D01*
X133074780Y-98722213D01*
X133114807Y-98854164D01*
X133135080Y-99060000D01*
X133114807Y-99265836D01*
X133094604Y-99332435D01*
X133054767Y-99463763D01*
X132957267Y-99646172D01*
X132826054Y-99806054D01*
X132666172Y-99937267D01*
X132483763Y-100034767D01*
X132417787Y-100054780D01*
X132285836Y-100094807D01*
X132208707Y-100102403D01*
X132131580Y-100110000D01*
X132028420Y-100110000D01*
X131951293Y-100102403D01*
X131874164Y-100094807D01*
X131742213Y-100054780D01*
X131676237Y-100034767D01*
X131493828Y-99937267D01*
X131333946Y-99806054D01*
X131202733Y-99646172D01*
X131105233Y-99463763D01*
X131065396Y-99332435D01*
X131045193Y-99265836D01*
X131024920Y-99060000D01*
X131045193Y-98854164D01*
X131085220Y-98722213D01*
X131105233Y-98656237D01*
X131202733Y-98473828D01*
X131333946Y-98313946D01*
X131493828Y-98182733D01*
X131676237Y-98085233D01*
X131742213Y-98065220D01*
X131874164Y-98025193D01*
X131951293Y-98017596D01*
X132028420Y-98010000D01*
X132131580Y-98010000D01*
X132208707Y-98017596D01*
X132208707Y-98017596D01*
G37*
G36*
X135383707Y-98017596D02*
X135460836Y-98025193D01*
X135592787Y-98065220D01*
X135658763Y-98085233D01*
X135841172Y-98182733D01*
X136001054Y-98313946D01*
X136132267Y-98473828D01*
X136229767Y-98656237D01*
X136249780Y-98722213D01*
X136289807Y-98854164D01*
X136310080Y-99060000D01*
X136289807Y-99265836D01*
X136269604Y-99332435D01*
X136229767Y-99463763D01*
X136132267Y-99646172D01*
X136001054Y-99806054D01*
X135841172Y-99937267D01*
X135658763Y-100034767D01*
X135592787Y-100054780D01*
X135460836Y-100094807D01*
X135383707Y-100102403D01*
X135306580Y-100110000D01*
X135203420Y-100110000D01*
X135126293Y-100102403D01*
X135049164Y-100094807D01*
X134917213Y-100054780D01*
X134851237Y-100034767D01*
X134668828Y-99937267D01*
X134508946Y-99806054D01*
X134377733Y-99646172D01*
X134280233Y-99463763D01*
X134240396Y-99332435D01*
X134220193Y-99265836D01*
X134199920Y-99060000D01*
X134220193Y-98854164D01*
X134260220Y-98722213D01*
X134280233Y-98656237D01*
X134377733Y-98473828D01*
X134508946Y-98313946D01*
X134668828Y-98182733D01*
X134851237Y-98085233D01*
X134917213Y-98065220D01*
X135049164Y-98025193D01*
X135126293Y-98017596D01*
X135203420Y-98010000D01*
X135306580Y-98010000D01*
X135383707Y-98017596D01*
X135383707Y-98017596D01*
G37*
G36*
X109348707Y-95477597D02*
X109425836Y-95485193D01*
X109557787Y-95525220D01*
X109623763Y-95545233D01*
X109806172Y-95642733D01*
X109966054Y-95773946D01*
X110097267Y-95933828D01*
X110194767Y-96116237D01*
X110194767Y-96116238D01*
X110254807Y-96314164D01*
X110275080Y-96520000D01*
X110254807Y-96725836D01*
X110214780Y-96857787D01*
X110194767Y-96923763D01*
X110097267Y-97106172D01*
X109966054Y-97266054D01*
X109806172Y-97397267D01*
X109623763Y-97494767D01*
X109557787Y-97514780D01*
X109425836Y-97554807D01*
X109348707Y-97562403D01*
X109271580Y-97570000D01*
X109168420Y-97570000D01*
X109091293Y-97562403D01*
X109014164Y-97554807D01*
X108882213Y-97514780D01*
X108816237Y-97494767D01*
X108633828Y-97397267D01*
X108473946Y-97266054D01*
X108342733Y-97106172D01*
X108245233Y-96923763D01*
X108225220Y-96857787D01*
X108185193Y-96725836D01*
X108164920Y-96520000D01*
X108185193Y-96314164D01*
X108245233Y-96116238D01*
X108245233Y-96116237D01*
X108342733Y-95933828D01*
X108473946Y-95773946D01*
X108633828Y-95642733D01*
X108816237Y-95545233D01*
X108882213Y-95525220D01*
X109014164Y-95485193D01*
X109091293Y-95477597D01*
X109168420Y-95470000D01*
X109271580Y-95470000D01*
X109348707Y-95477597D01*
X109348707Y-95477597D01*
G37*
G36*
X135383707Y-95477597D02*
X135460836Y-95485193D01*
X135592787Y-95525220D01*
X135658763Y-95545233D01*
X135841172Y-95642733D01*
X136001054Y-95773946D01*
X136132267Y-95933828D01*
X136229767Y-96116237D01*
X136229767Y-96116238D01*
X136289807Y-96314164D01*
X136310080Y-96520000D01*
X136289807Y-96725836D01*
X136249780Y-96857787D01*
X136229767Y-96923763D01*
X136132267Y-97106172D01*
X136001054Y-97266054D01*
X135841172Y-97397267D01*
X135658763Y-97494767D01*
X135592787Y-97514780D01*
X135460836Y-97554807D01*
X135383707Y-97562403D01*
X135306580Y-97570000D01*
X135203420Y-97570000D01*
X135126293Y-97562403D01*
X135049164Y-97554807D01*
X134917213Y-97514780D01*
X134851237Y-97494767D01*
X134668828Y-97397267D01*
X134508946Y-97266054D01*
X134377733Y-97106172D01*
X134280233Y-96923763D01*
X134260220Y-96857787D01*
X134220193Y-96725836D01*
X134199920Y-96520000D01*
X134220193Y-96314164D01*
X134280233Y-96116238D01*
X134280233Y-96116237D01*
X134377733Y-95933828D01*
X134508946Y-95773946D01*
X134668828Y-95642733D01*
X134851237Y-95545233D01*
X134917213Y-95525220D01*
X135049164Y-95485193D01*
X135126293Y-95477597D01*
X135203420Y-95470000D01*
X135306580Y-95470000D01*
X135383707Y-95477597D01*
X135383707Y-95477597D01*
G37*
G36*
X132208707Y-95477597D02*
X132285836Y-95485193D01*
X132417787Y-95525220D01*
X132483763Y-95545233D01*
X132666172Y-95642733D01*
X132826054Y-95773946D01*
X132957267Y-95933828D01*
X133054767Y-96116237D01*
X133054767Y-96116238D01*
X133114807Y-96314164D01*
X133135080Y-96520000D01*
X133114807Y-96725836D01*
X133074780Y-96857787D01*
X133054767Y-96923763D01*
X132957267Y-97106172D01*
X132826054Y-97266054D01*
X132666172Y-97397267D01*
X132483763Y-97494767D01*
X132417787Y-97514780D01*
X132285836Y-97554807D01*
X132208707Y-97562403D01*
X132131580Y-97570000D01*
X132028420Y-97570000D01*
X131951293Y-97562403D01*
X131874164Y-97554807D01*
X131742213Y-97514780D01*
X131676237Y-97494767D01*
X131493828Y-97397267D01*
X131333946Y-97266054D01*
X131202733Y-97106172D01*
X131105233Y-96923763D01*
X131085220Y-96857787D01*
X131045193Y-96725836D01*
X131024920Y-96520000D01*
X131045193Y-96314164D01*
X131105233Y-96116238D01*
X131105233Y-96116237D01*
X131202733Y-95933828D01*
X131333946Y-95773946D01*
X131493828Y-95642733D01*
X131676237Y-95545233D01*
X131742213Y-95525220D01*
X131874164Y-95485193D01*
X131951293Y-95477597D01*
X132028420Y-95470000D01*
X132131580Y-95470000D01*
X132208707Y-95477597D01*
X132208707Y-95477597D01*
G37*
G36*
X105538707Y-94207596D02*
X105615836Y-94215193D01*
X105747787Y-94255220D01*
X105813763Y-94275233D01*
X105996172Y-94372733D01*
X106156054Y-94503946D01*
X106287267Y-94663828D01*
X106384767Y-94846237D01*
X106384767Y-94846238D01*
X106444807Y-95044164D01*
X106465080Y-95250000D01*
X106444807Y-95455836D01*
X106417689Y-95545233D01*
X106384767Y-95653763D01*
X106287267Y-95836172D01*
X106156054Y-95996054D01*
X105996172Y-96127267D01*
X105813763Y-96224767D01*
X105747787Y-96244780D01*
X105615836Y-96284807D01*
X105538707Y-96292403D01*
X105461580Y-96300000D01*
X105358420Y-96300000D01*
X105281293Y-96292403D01*
X105204164Y-96284807D01*
X105072213Y-96244780D01*
X105006237Y-96224767D01*
X104823828Y-96127267D01*
X104663946Y-95996054D01*
X104532733Y-95836172D01*
X104435233Y-95653763D01*
X104402311Y-95545233D01*
X104375193Y-95455836D01*
X104354920Y-95250000D01*
X104375193Y-95044164D01*
X104435233Y-94846238D01*
X104435233Y-94846237D01*
X104532733Y-94663828D01*
X104663946Y-94503946D01*
X104823828Y-94372733D01*
X105006237Y-94275233D01*
X105072213Y-94255220D01*
X105204164Y-94215193D01*
X105281293Y-94207596D01*
X105358420Y-94200000D01*
X105461580Y-94200000D01*
X105538707Y-94207596D01*
X105538707Y-94207596D01*
G37*
G36*
X103920000Y-96300000D02*
X101820000Y-96300000D01*
X101820000Y-94200000D01*
X103920000Y-94200000D01*
X103920000Y-96300000D01*
X103920000Y-96300000D01*
G37*
G36*
X135383707Y-92937596D02*
X135460836Y-92945193D01*
X135592787Y-92985220D01*
X135658763Y-93005233D01*
X135841172Y-93102733D01*
X136001054Y-93233946D01*
X136132267Y-93393828D01*
X136229767Y-93576237D01*
X136229767Y-93576238D01*
X136289807Y-93774164D01*
X136310080Y-93980000D01*
X136289807Y-94185836D01*
X136262689Y-94275233D01*
X136229767Y-94383763D01*
X136132267Y-94566172D01*
X136001054Y-94726054D01*
X135841172Y-94857267D01*
X135658763Y-94954767D01*
X135592787Y-94974780D01*
X135460836Y-95014807D01*
X135383707Y-95022403D01*
X135306580Y-95030000D01*
X135203420Y-95030000D01*
X135126293Y-95022403D01*
X135049164Y-95014807D01*
X134917213Y-94974780D01*
X134851237Y-94954767D01*
X134668828Y-94857267D01*
X134508946Y-94726054D01*
X134377733Y-94566172D01*
X134280233Y-94383763D01*
X134247311Y-94275233D01*
X134220193Y-94185836D01*
X134199920Y-93980000D01*
X134220193Y-93774164D01*
X134280233Y-93576238D01*
X134280233Y-93576237D01*
X134377733Y-93393828D01*
X134508946Y-93233946D01*
X134668828Y-93102733D01*
X134851237Y-93005233D01*
X134917213Y-92985220D01*
X135049164Y-92945193D01*
X135126293Y-92937596D01*
X135203420Y-92930000D01*
X135306580Y-92930000D01*
X135383707Y-92937596D01*
X135383707Y-92937596D01*
G37*
G36*
X109348707Y-92937596D02*
X109425836Y-92945193D01*
X109557787Y-92985220D01*
X109623763Y-93005233D01*
X109806172Y-93102733D01*
X109966054Y-93233946D01*
X110097267Y-93393828D01*
X110194767Y-93576237D01*
X110194767Y-93576238D01*
X110254807Y-93774164D01*
X110275080Y-93980000D01*
X110254807Y-94185836D01*
X110227689Y-94275233D01*
X110194767Y-94383763D01*
X110097267Y-94566172D01*
X109966054Y-94726054D01*
X109806172Y-94857267D01*
X109623763Y-94954767D01*
X109557787Y-94974780D01*
X109425836Y-95014807D01*
X109348707Y-95022403D01*
X109271580Y-95030000D01*
X109168420Y-95030000D01*
X109091293Y-95022403D01*
X109014164Y-95014807D01*
X108882213Y-94974780D01*
X108816237Y-94954767D01*
X108633828Y-94857267D01*
X108473946Y-94726054D01*
X108342733Y-94566172D01*
X108245233Y-94383763D01*
X108212311Y-94275233D01*
X108185193Y-94185836D01*
X108164920Y-93980000D01*
X108185193Y-93774164D01*
X108245233Y-93576238D01*
X108245233Y-93576237D01*
X108342733Y-93393828D01*
X108473946Y-93233946D01*
X108633828Y-93102733D01*
X108816237Y-93005233D01*
X108882213Y-92985220D01*
X109014164Y-92945193D01*
X109091293Y-92937596D01*
X109168420Y-92930000D01*
X109271580Y-92930000D01*
X109348707Y-92937596D01*
X109348707Y-92937596D01*
G37*
G36*
X132208707Y-92937596D02*
X132285836Y-92945193D01*
X132417787Y-92985220D01*
X132483763Y-93005233D01*
X132666172Y-93102733D01*
X132826054Y-93233946D01*
X132957267Y-93393828D01*
X133054767Y-93576237D01*
X133054767Y-93576238D01*
X133114807Y-93774164D01*
X133135080Y-93980000D01*
X133114807Y-94185836D01*
X133087689Y-94275233D01*
X133054767Y-94383763D01*
X132957267Y-94566172D01*
X132826054Y-94726054D01*
X132666172Y-94857267D01*
X132483763Y-94954767D01*
X132417787Y-94974780D01*
X132285836Y-95014807D01*
X132208707Y-95022403D01*
X132131580Y-95030000D01*
X132028420Y-95030000D01*
X131951293Y-95022403D01*
X131874164Y-95014807D01*
X131742213Y-94974780D01*
X131676237Y-94954767D01*
X131493828Y-94857267D01*
X131333946Y-94726054D01*
X131202733Y-94566172D01*
X131105233Y-94383763D01*
X131072311Y-94275233D01*
X131045193Y-94185836D01*
X131024920Y-93980000D01*
X131045193Y-93774164D01*
X131105233Y-93576238D01*
X131105233Y-93576237D01*
X131202733Y-93393828D01*
X131333946Y-93233946D01*
X131493828Y-93102733D01*
X131676237Y-93005233D01*
X131742213Y-92985220D01*
X131874164Y-92945193D01*
X131951293Y-92937596D01*
X132028420Y-92930000D01*
X132131580Y-92930000D01*
X132208707Y-92937596D01*
X132208707Y-92937596D01*
G37*
G36*
X98199122Y-90321115D02*
X98315041Y-90344173D01*
X98642620Y-90479861D01*
X98933511Y-90674228D01*
X98937436Y-90676851D01*
X99188149Y-90927564D01*
X99188151Y-90927567D01*
X99385139Y-91222380D01*
X99520827Y-91549959D01*
X99590000Y-91897716D01*
X99590000Y-92252284D01*
X99520827Y-92600041D01*
X99385139Y-92927620D01*
X99268132Y-93102733D01*
X99188149Y-93222436D01*
X98937436Y-93473149D01*
X98937433Y-93473151D01*
X98642620Y-93670139D01*
X98315041Y-93805827D01*
X98199122Y-93828885D01*
X97967286Y-93875000D01*
X97612714Y-93875000D01*
X97380878Y-93828885D01*
X97264959Y-93805827D01*
X96937380Y-93670139D01*
X96642567Y-93473151D01*
X96642564Y-93473149D01*
X96391851Y-93222436D01*
X96311868Y-93102733D01*
X96194861Y-92927620D01*
X96059173Y-92600041D01*
X95990000Y-92252284D01*
X95990000Y-91897716D01*
X96059173Y-91549959D01*
X96194861Y-91222380D01*
X96391849Y-90927567D01*
X96391851Y-90927564D01*
X96642564Y-90676851D01*
X96646489Y-90674228D01*
X96937380Y-90479861D01*
X97264959Y-90344173D01*
X97380878Y-90321115D01*
X97612714Y-90275000D01*
X97967286Y-90275000D01*
X98199122Y-90321115D01*
X98199122Y-90321115D01*
G37*
G36*
X132208707Y-90397597D02*
X132285836Y-90405193D01*
X132417787Y-90445220D01*
X132483763Y-90465233D01*
X132666172Y-90562733D01*
X132826054Y-90693946D01*
X132957267Y-90853828D01*
X133054767Y-91036237D01*
X133054767Y-91036238D01*
X133114807Y-91234164D01*
X133135080Y-91440000D01*
X133114807Y-91645836D01*
X133074780Y-91777787D01*
X133054767Y-91843763D01*
X132957267Y-92026172D01*
X132826054Y-92186054D01*
X132666172Y-92317267D01*
X132483763Y-92414767D01*
X132417787Y-92434780D01*
X132285836Y-92474807D01*
X132208707Y-92482404D01*
X132131580Y-92490000D01*
X132028420Y-92490000D01*
X131951293Y-92482404D01*
X131874164Y-92474807D01*
X131742213Y-92434780D01*
X131676237Y-92414767D01*
X131493828Y-92317267D01*
X131333946Y-92186054D01*
X131202733Y-92026172D01*
X131105233Y-91843763D01*
X131085220Y-91777787D01*
X131045193Y-91645836D01*
X131024920Y-91440000D01*
X131045193Y-91234164D01*
X131105233Y-91036238D01*
X131105233Y-91036237D01*
X131202733Y-90853828D01*
X131333946Y-90693946D01*
X131493828Y-90562733D01*
X131676237Y-90465233D01*
X131742213Y-90445220D01*
X131874164Y-90405193D01*
X131951293Y-90397597D01*
X132028420Y-90390000D01*
X132131580Y-90390000D01*
X132208707Y-90397597D01*
X132208707Y-90397597D01*
G37*
G36*
X109348707Y-90397597D02*
X109425836Y-90405193D01*
X109557787Y-90445220D01*
X109623763Y-90465233D01*
X109806172Y-90562733D01*
X109966054Y-90693946D01*
X110097267Y-90853828D01*
X110194767Y-91036237D01*
X110194767Y-91036238D01*
X110254807Y-91234164D01*
X110275080Y-91440000D01*
X110254807Y-91645836D01*
X110214780Y-91777787D01*
X110194767Y-91843763D01*
X110097267Y-92026172D01*
X109966054Y-92186054D01*
X109806172Y-92317267D01*
X109623763Y-92414767D01*
X109557787Y-92434780D01*
X109425836Y-92474807D01*
X109348707Y-92482404D01*
X109271580Y-92490000D01*
X109168420Y-92490000D01*
X109091293Y-92482404D01*
X109014164Y-92474807D01*
X108882213Y-92434780D01*
X108816237Y-92414767D01*
X108633828Y-92317267D01*
X108473946Y-92186054D01*
X108342733Y-92026172D01*
X108245233Y-91843763D01*
X108225220Y-91777787D01*
X108185193Y-91645836D01*
X108164920Y-91440000D01*
X108185193Y-91234164D01*
X108245233Y-91036238D01*
X108245233Y-91036237D01*
X108342733Y-90853828D01*
X108473946Y-90693946D01*
X108633828Y-90562733D01*
X108816237Y-90465233D01*
X108882213Y-90445220D01*
X109014164Y-90405193D01*
X109091293Y-90397597D01*
X109168420Y-90390000D01*
X109271580Y-90390000D01*
X109348707Y-90397597D01*
X109348707Y-90397597D01*
G37*
G36*
X135383707Y-90397597D02*
X135460836Y-90405193D01*
X135592787Y-90445220D01*
X135658763Y-90465233D01*
X135841172Y-90562733D01*
X136001054Y-90693946D01*
X136132267Y-90853828D01*
X136229767Y-91036237D01*
X136229767Y-91036238D01*
X136289807Y-91234164D01*
X136310080Y-91440000D01*
X136289807Y-91645836D01*
X136249780Y-91777787D01*
X136229767Y-91843763D01*
X136132267Y-92026172D01*
X136001054Y-92186054D01*
X135841172Y-92317267D01*
X135658763Y-92414767D01*
X135592787Y-92434780D01*
X135460836Y-92474807D01*
X135383707Y-92482403D01*
X135306580Y-92490000D01*
X135203420Y-92490000D01*
X135126293Y-92482404D01*
X135049164Y-92474807D01*
X134917213Y-92434780D01*
X134851237Y-92414767D01*
X134668828Y-92317267D01*
X134508946Y-92186054D01*
X134377733Y-92026172D01*
X134280233Y-91843763D01*
X134260220Y-91777787D01*
X134220193Y-91645836D01*
X134199920Y-91440000D01*
X134220193Y-91234164D01*
X134280233Y-91036238D01*
X134280233Y-91036237D01*
X134377733Y-90853828D01*
X134508946Y-90693946D01*
X134668828Y-90562733D01*
X134851237Y-90465233D01*
X134917213Y-90445220D01*
X135049164Y-90405193D01*
X135126293Y-90397597D01*
X135203420Y-90390000D01*
X135306580Y-90390000D01*
X135383707Y-90397597D01*
X135383707Y-90397597D01*
G37*
G36*
X105021723Y-87628422D02*
X105137642Y-87651480D01*
X105465221Y-87787168D01*
X105756112Y-87981535D01*
X105760037Y-87984158D01*
X106010750Y-88234871D01*
X106010752Y-88234874D01*
X106207740Y-88529687D01*
X106275870Y-88694166D01*
X106343428Y-88857267D01*
X106412601Y-89205021D01*
X106412601Y-89559593D01*
X106343428Y-89907347D01*
X106207741Y-90234925D01*
X106010750Y-90529743D01*
X105760037Y-90780456D01*
X105760034Y-90780458D01*
X105465221Y-90977446D01*
X105137642Y-91113134D01*
X105021723Y-91136192D01*
X104789887Y-91182307D01*
X104435315Y-91182307D01*
X104203479Y-91136192D01*
X104087560Y-91113134D01*
X103759981Y-90977446D01*
X103465168Y-90780458D01*
X103465165Y-90780456D01*
X103214452Y-90529743D01*
X103017461Y-90234925D01*
X102881774Y-89907347D01*
X102812601Y-89559593D01*
X102812601Y-89205021D01*
X102881774Y-88857267D01*
X102949333Y-88694166D01*
X103017462Y-88529687D01*
X103214450Y-88234874D01*
X103214452Y-88234871D01*
X103465165Y-87984158D01*
X103469090Y-87981535D01*
X103759981Y-87787168D01*
X104087560Y-87651480D01*
X104203479Y-87628422D01*
X104435315Y-87582307D01*
X104789887Y-87582307D01*
X105021723Y-87628422D01*
X105021723Y-87628422D01*
G37*
G36*
X135383707Y-87857596D02*
X135460836Y-87865193D01*
X135592787Y-87905220D01*
X135658763Y-87925233D01*
X135841172Y-88022733D01*
X136001054Y-88153946D01*
X136132267Y-88313828D01*
X136229767Y-88496237D01*
X136229767Y-88496238D01*
X136289807Y-88694164D01*
X136310080Y-88900000D01*
X136289807Y-89105836D01*
X136259720Y-89205021D01*
X136229767Y-89303763D01*
X136132267Y-89486172D01*
X136001054Y-89646054D01*
X135841172Y-89777267D01*
X135658763Y-89874767D01*
X135592787Y-89894780D01*
X135460836Y-89934807D01*
X135383707Y-89942403D01*
X135306580Y-89950000D01*
X135203420Y-89950000D01*
X135126293Y-89942403D01*
X135049164Y-89934807D01*
X134917213Y-89894780D01*
X134851237Y-89874767D01*
X134668828Y-89777267D01*
X134508946Y-89646054D01*
X134377733Y-89486172D01*
X134280233Y-89303763D01*
X134250280Y-89205021D01*
X134220193Y-89105836D01*
X134199920Y-88900000D01*
X134220193Y-88694164D01*
X134280233Y-88496238D01*
X134280233Y-88496237D01*
X134377733Y-88313828D01*
X134508946Y-88153946D01*
X134668828Y-88022733D01*
X134851237Y-87925233D01*
X134917213Y-87905220D01*
X135049164Y-87865193D01*
X135126293Y-87857596D01*
X135203420Y-87850000D01*
X135306580Y-87850000D01*
X135383707Y-87857596D01*
X135383707Y-87857596D01*
G37*
G36*
X109348707Y-87857596D02*
X109425836Y-87865193D01*
X109557787Y-87905220D01*
X109623763Y-87925233D01*
X109806172Y-88022733D01*
X109966054Y-88153946D01*
X110097267Y-88313828D01*
X110194767Y-88496237D01*
X110194767Y-88496238D01*
X110254807Y-88694164D01*
X110275080Y-88900000D01*
X110254807Y-89105836D01*
X110224720Y-89205021D01*
X110194767Y-89303763D01*
X110097267Y-89486172D01*
X109966054Y-89646054D01*
X109806172Y-89777267D01*
X109623763Y-89874767D01*
X109557787Y-89894780D01*
X109425836Y-89934807D01*
X109348707Y-89942403D01*
X109271580Y-89950000D01*
X109168420Y-89950000D01*
X109091293Y-89942403D01*
X109014164Y-89934807D01*
X108882213Y-89894780D01*
X108816237Y-89874767D01*
X108633828Y-89777267D01*
X108473946Y-89646054D01*
X108342733Y-89486172D01*
X108245233Y-89303763D01*
X108215280Y-89205021D01*
X108185193Y-89105836D01*
X108164920Y-88900000D01*
X108185193Y-88694164D01*
X108245233Y-88496238D01*
X108245233Y-88496237D01*
X108342733Y-88313828D01*
X108473946Y-88153946D01*
X108633828Y-88022733D01*
X108816237Y-87925233D01*
X108882213Y-87905220D01*
X109014164Y-87865193D01*
X109091293Y-87857596D01*
X109168420Y-87850000D01*
X109271580Y-87850000D01*
X109348707Y-87857596D01*
X109348707Y-87857596D01*
G37*
G36*
X132208707Y-87857596D02*
X132285836Y-87865193D01*
X132417787Y-87905220D01*
X132483763Y-87925233D01*
X132666172Y-88022733D01*
X132826054Y-88153946D01*
X132957267Y-88313828D01*
X133054767Y-88496237D01*
X133054767Y-88496238D01*
X133114807Y-88694164D01*
X133135080Y-88900000D01*
X133114807Y-89105836D01*
X133084720Y-89205021D01*
X133054767Y-89303763D01*
X132957267Y-89486172D01*
X132826054Y-89646054D01*
X132666172Y-89777267D01*
X132483763Y-89874767D01*
X132417787Y-89894780D01*
X132285836Y-89934807D01*
X132208707Y-89942403D01*
X132131580Y-89950000D01*
X132028420Y-89950000D01*
X131951293Y-89942403D01*
X131874164Y-89934807D01*
X131742213Y-89894780D01*
X131676237Y-89874767D01*
X131493828Y-89777267D01*
X131333946Y-89646054D01*
X131202733Y-89486172D01*
X131105233Y-89303763D01*
X131075280Y-89205021D01*
X131045193Y-89105836D01*
X131024920Y-88900000D01*
X131045193Y-88694164D01*
X131105233Y-88496238D01*
X131105233Y-88496237D01*
X131202733Y-88313828D01*
X131333946Y-88153946D01*
X131493828Y-88022733D01*
X131676237Y-87925233D01*
X131742213Y-87905220D01*
X131874164Y-87865193D01*
X131951293Y-87857596D01*
X132028420Y-87850000D01*
X132131580Y-87850000D01*
X132208707Y-87857596D01*
X132208707Y-87857596D01*
G37*
G36*
X110270000Y-87410000D02*
X108170000Y-87410000D01*
X108170000Y-85310000D01*
X110270000Y-85310000D01*
X110270000Y-87410000D01*
X110270000Y-87410000D01*
G37*
G36*
X135383707Y-85317597D02*
X135460836Y-85325193D01*
X135592787Y-85365220D01*
X135658763Y-85385233D01*
X135841172Y-85482733D01*
X136001054Y-85613946D01*
X136132267Y-85773828D01*
X136229767Y-85956237D01*
X136229767Y-85956238D01*
X136289807Y-86154164D01*
X136310080Y-86360000D01*
X136289807Y-86565836D01*
X136249780Y-86697787D01*
X136229767Y-86763763D01*
X136132267Y-86946172D01*
X136001054Y-87106054D01*
X135841172Y-87237267D01*
X135658763Y-87334767D01*
X135592787Y-87354780D01*
X135460836Y-87394807D01*
X135383707Y-87402404D01*
X135306580Y-87410000D01*
X135203420Y-87410000D01*
X135126293Y-87402404D01*
X135049164Y-87394807D01*
X134917213Y-87354780D01*
X134851237Y-87334767D01*
X134668828Y-87237267D01*
X134508946Y-87106054D01*
X134377733Y-86946172D01*
X134280233Y-86763763D01*
X134260220Y-86697787D01*
X134220193Y-86565836D01*
X134199920Y-86360000D01*
X134220193Y-86154164D01*
X134280233Y-85956238D01*
X134280233Y-85956237D01*
X134377733Y-85773828D01*
X134508946Y-85613946D01*
X134668828Y-85482733D01*
X134851237Y-85385233D01*
X134917213Y-85365220D01*
X135049164Y-85325193D01*
X135126293Y-85317597D01*
X135203420Y-85310000D01*
X135306580Y-85310000D01*
X135383707Y-85317597D01*
X135383707Y-85317597D01*
G37*
G36*
X133130000Y-87410000D02*
X131030000Y-87410000D01*
X131030000Y-85310000D01*
X133130000Y-85310000D01*
X133130000Y-87410000D01*
X133130000Y-87410000D01*
G37*
G36*
X97918707Y-82777596D02*
X97995836Y-82785193D01*
X98127787Y-82825220D01*
X98193763Y-82845233D01*
X98376172Y-82942733D01*
X98536054Y-83073946D01*
X98667267Y-83233828D01*
X98764767Y-83416237D01*
X98764767Y-83416238D01*
X98824807Y-83614164D01*
X98845080Y-83820000D01*
X98824807Y-84025836D01*
X98784780Y-84157787D01*
X98764767Y-84223763D01*
X98667267Y-84406172D01*
X98536054Y-84566054D01*
X98376172Y-84697267D01*
X98193763Y-84794767D01*
X98127787Y-84814780D01*
X97995836Y-84854807D01*
X97918707Y-84862403D01*
X97841580Y-84870000D01*
X97738420Y-84870000D01*
X97661293Y-84862403D01*
X97584164Y-84854807D01*
X97452213Y-84814780D01*
X97386237Y-84794767D01*
X97203828Y-84697267D01*
X97043946Y-84566054D01*
X96912733Y-84406172D01*
X96815233Y-84223763D01*
X96795220Y-84157787D01*
X96755193Y-84025836D01*
X96734920Y-83820000D01*
X96755193Y-83614164D01*
X96815233Y-83416238D01*
X96815233Y-83416237D01*
X96912733Y-83233828D01*
X97043946Y-83073946D01*
X97203828Y-82942733D01*
X97386237Y-82845233D01*
X97452213Y-82825220D01*
X97584164Y-82785193D01*
X97661293Y-82777596D01*
X97738420Y-82770000D01*
X97841580Y-82770000D01*
X97918707Y-82777596D01*
X97918707Y-82777596D01*
G37*
G36*
X105538707Y-82777596D02*
X105615836Y-82785193D01*
X105747787Y-82825220D01*
X105813763Y-82845233D01*
X105996172Y-82942733D01*
X106156054Y-83073946D01*
X106287267Y-83233828D01*
X106384767Y-83416237D01*
X106384767Y-83416238D01*
X106444807Y-83614164D01*
X106465080Y-83820000D01*
X106444807Y-84025836D01*
X106404780Y-84157787D01*
X106384767Y-84223763D01*
X106287267Y-84406172D01*
X106156054Y-84566054D01*
X105996172Y-84697267D01*
X105813763Y-84794767D01*
X105747787Y-84814780D01*
X105615836Y-84854807D01*
X105538707Y-84862403D01*
X105461580Y-84870000D01*
X105358420Y-84870000D01*
X105281293Y-84862403D01*
X105204164Y-84854807D01*
X105072213Y-84814780D01*
X105006237Y-84794767D01*
X104823828Y-84697267D01*
X104663946Y-84566054D01*
X104532733Y-84406172D01*
X104435233Y-84223763D01*
X104415220Y-84157787D01*
X104375193Y-84025836D01*
X104354920Y-83820000D01*
X104375193Y-83614164D01*
X104435233Y-83416238D01*
X104435233Y-83416237D01*
X104532733Y-83233828D01*
X104663946Y-83073946D01*
X104823828Y-82942733D01*
X105006237Y-82845233D01*
X105072213Y-82825220D01*
X105204164Y-82785193D01*
X105281293Y-82777596D01*
X105358420Y-82770000D01*
X105461580Y-82770000D01*
X105538707Y-82777596D01*
X105538707Y-82777596D01*
G37*
G36*
X101728707Y-82777596D02*
X101805836Y-82785193D01*
X101937787Y-82825220D01*
X102003763Y-82845233D01*
X102186172Y-82942733D01*
X102346054Y-83073946D01*
X102477267Y-83233828D01*
X102574767Y-83416237D01*
X102574767Y-83416238D01*
X102634807Y-83614164D01*
X102655080Y-83820000D01*
X102634807Y-84025836D01*
X102594780Y-84157787D01*
X102574767Y-84223763D01*
X102477267Y-84406172D01*
X102346054Y-84566054D01*
X102186172Y-84697267D01*
X102003763Y-84794767D01*
X101937787Y-84814780D01*
X101805836Y-84854807D01*
X101728707Y-84862403D01*
X101651580Y-84870000D01*
X101548420Y-84870000D01*
X101471293Y-84862403D01*
X101394164Y-84854807D01*
X101262213Y-84814780D01*
X101196237Y-84794767D01*
X101013828Y-84697267D01*
X100853946Y-84566054D01*
X100722733Y-84406172D01*
X100625233Y-84223763D01*
X100605220Y-84157787D01*
X100565193Y-84025836D01*
X100544920Y-83820000D01*
X100565193Y-83614164D01*
X100625233Y-83416238D01*
X100625233Y-83416237D01*
X100722733Y-83233828D01*
X100853946Y-83073946D01*
X101013828Y-82942733D01*
X101196237Y-82845233D01*
X101262213Y-82825220D01*
X101394164Y-82785193D01*
X101471293Y-82777596D01*
X101548420Y-82770000D01*
X101651580Y-82770000D01*
X101728707Y-82777596D01*
X101728707Y-82777596D01*
G37*
G36*
X135383707Y-82777596D02*
X135460836Y-82785193D01*
X135592787Y-82825220D01*
X135658763Y-82845233D01*
X135841172Y-82942733D01*
X136001054Y-83073946D01*
X136132267Y-83233828D01*
X136229767Y-83416237D01*
X136229767Y-83416238D01*
X136289807Y-83614164D01*
X136310080Y-83820000D01*
X136289807Y-84025836D01*
X136249780Y-84157787D01*
X136229767Y-84223763D01*
X136132267Y-84406172D01*
X136001054Y-84566054D01*
X135841172Y-84697267D01*
X135658763Y-84794767D01*
X135592787Y-84814780D01*
X135460836Y-84854807D01*
X135383707Y-84862403D01*
X135306580Y-84870000D01*
X135203420Y-84870000D01*
X135126293Y-84862403D01*
X135049164Y-84854807D01*
X134917213Y-84814780D01*
X134851237Y-84794767D01*
X134668828Y-84697267D01*
X134508946Y-84566054D01*
X134377733Y-84406172D01*
X134280233Y-84223763D01*
X134260220Y-84157787D01*
X134220193Y-84025836D01*
X134199920Y-83820000D01*
X134220193Y-83614164D01*
X134280233Y-83416238D01*
X134280233Y-83416237D01*
X134377733Y-83233828D01*
X134508946Y-83073946D01*
X134668828Y-82942733D01*
X134851237Y-82845233D01*
X134917213Y-82825220D01*
X135049164Y-82785193D01*
X135126293Y-82777596D01*
X135203420Y-82770000D01*
X135306580Y-82770000D01*
X135383707Y-82777596D01*
X135383707Y-82777596D01*
G37*
G36*
X106460000Y-82330000D02*
X104360000Y-82330000D01*
X104360000Y-80230000D01*
X106460000Y-80230000D01*
X106460000Y-82330000D01*
X106460000Y-82330000D01*
G37*
G36*
X136305000Y-82330000D02*
X134205000Y-82330000D01*
X134205000Y-80230000D01*
X136305000Y-80230000D01*
X136305000Y-82330000D01*
X136305000Y-82330000D01*
G37*
G36*
X98840000Y-82330000D02*
X96740000Y-82330000D01*
X96740000Y-80230000D01*
X98840000Y-80230000D01*
X98840000Y-82330000D01*
X98840000Y-82330000D01*
G37*
G36*
X102650000Y-82330000D02*
X100550000Y-82330000D01*
X100550000Y-80230000D01*
X102650000Y-80230000D01*
X102650000Y-82330000D01*
X102650000Y-82330000D01*
G37*
M02*
