G04 #@! TF.GenerationSoftware,KiCad,Pcbnew,5.0.1-33cea8e~68~ubuntu18.04.1*
G04 #@! TF.CreationDate,2018-11-08T20:55:39+01:00*
G04 #@! TF.ProjectId,MotherPCB,4D6F746865725043422E6B696361645F,rev?*
G04 #@! TF.SameCoordinates,Original*
G04 #@! TF.FileFunction,Legend,Top*
G04 #@! TF.FilePolarity,Positive*
%FSLAX46Y46*%
G04 Gerber Fmt 4.6, Leading zero omitted, Abs format (unit mm)*
G04 Created by KiCad (PCBNEW 5.0.1-33cea8e~68~ubuntu18.04.1) date jue 08 nov 2018 20:55:39 CET*
%MOMM*%
%LPD*%
G01*
G04 APERTURE LIST*
%ADD10C,0.200000*%
%ADD11C,0.120000*%
%ADD12C,0.203200*%
%ADD13C,0.150000*%
%ADD14C,0.900000*%
%ADD15C,0.032512*%
G04 APERTURE END LIST*
D10*
X100123809Y-93797380D02*
X100123809Y-92797380D01*
X100790476Y-92797380D02*
X100980952Y-92797380D01*
X101076190Y-92845000D01*
X101171428Y-92940238D01*
X101219047Y-93130714D01*
X101219047Y-93464047D01*
X101171428Y-93654523D01*
X101076190Y-93749761D01*
X100980952Y-93797380D01*
X100790476Y-93797380D01*
X100695238Y-93749761D01*
X100600000Y-93654523D01*
X100552380Y-93464047D01*
X100552380Y-93130714D01*
X100600000Y-92940238D01*
X100695238Y-92845000D01*
X100790476Y-92797380D01*
X102171428Y-93797380D02*
X101600000Y-93797380D01*
X101885714Y-93797380D02*
X101885714Y-92797380D01*
X101790476Y-92940238D01*
X101695238Y-93035476D01*
X101600000Y-93083095D01*
X103123809Y-93797380D02*
X102552380Y-93797380D01*
X102838095Y-93797380D02*
X102838095Y-92797380D01*
X102742857Y-92940238D01*
X102647619Y-93035476D01*
X102552380Y-93083095D01*
X103933809Y-93797380D02*
X103933809Y-92797380D01*
X104981428Y-93797380D02*
X104648095Y-93321190D01*
X104410000Y-93797380D02*
X104410000Y-92797380D01*
X104790952Y-92797380D01*
X104886190Y-92845000D01*
X104933809Y-92892619D01*
X104981428Y-92987857D01*
X104981428Y-93130714D01*
X104933809Y-93225952D01*
X104886190Y-93273571D01*
X104790952Y-93321190D01*
X104410000Y-93321190D01*
X105981428Y-93797380D02*
X105648095Y-93321190D01*
X105410000Y-93797380D02*
X105410000Y-92797380D01*
X105790952Y-92797380D01*
X105886190Y-92845000D01*
X105933809Y-92892619D01*
X105981428Y-92987857D01*
X105981428Y-93130714D01*
X105933809Y-93225952D01*
X105886190Y-93273571D01*
X105790952Y-93321190D01*
X105410000Y-93321190D01*
X106314761Y-92797380D02*
X106981428Y-93797380D01*
X106981428Y-92797380D02*
X106314761Y-93797380D01*
X96972380Y-138874047D02*
X95972380Y-138874047D01*
X96686666Y-138540714D01*
X95972380Y-138207380D01*
X96972380Y-138207380D01*
X96972380Y-137731190D02*
X95972380Y-137731190D01*
X96877142Y-136683571D02*
X96924761Y-136731190D01*
X96972380Y-136874047D01*
X96972380Y-136969285D01*
X96924761Y-137112142D01*
X96829523Y-137207380D01*
X96734285Y-137255000D01*
X96543809Y-137302619D01*
X96400952Y-137302619D01*
X96210476Y-137255000D01*
X96115238Y-137207380D01*
X96020000Y-137112142D01*
X95972380Y-136969285D01*
X95972380Y-136874047D01*
X96020000Y-136731190D01*
X96067619Y-136683571D01*
X97067619Y-136493095D02*
X97067619Y-135731190D01*
X96972380Y-135493095D02*
X95972380Y-135493095D01*
X96972380Y-135016904D02*
X95972380Y-135016904D01*
X96972380Y-134445476D01*
X95972380Y-134445476D01*
X96972380Y-133969285D02*
X95972380Y-133969285D01*
X95972380Y-133588333D01*
X96020000Y-133493095D01*
X96067619Y-133445476D01*
X96162857Y-133397857D01*
X96305714Y-133397857D01*
X96400952Y-133445476D01*
X96448571Y-133493095D01*
X96496190Y-133588333D01*
X96496190Y-133969285D01*
X95972380Y-132969285D02*
X96781904Y-132969285D01*
X96877142Y-132921666D01*
X96924761Y-132874047D01*
X96972380Y-132778809D01*
X96972380Y-132588333D01*
X96924761Y-132493095D01*
X96877142Y-132445476D01*
X96781904Y-132397857D01*
X95972380Y-132397857D01*
X95972380Y-132064523D02*
X95972380Y-131493095D01*
X96972380Y-131778809D02*
X95972380Y-131778809D01*
X96686666Y-125753333D02*
X96686666Y-125277142D01*
X96972380Y-125848571D02*
X95972380Y-125515238D01*
X96972380Y-125181904D01*
X95972380Y-124848571D02*
X96781904Y-124848571D01*
X96877142Y-124800952D01*
X96924761Y-124753333D01*
X96972380Y-124658095D01*
X96972380Y-124467619D01*
X96924761Y-124372380D01*
X96877142Y-124324761D01*
X96781904Y-124277142D01*
X95972380Y-124277142D01*
X96972380Y-123800952D02*
X95972380Y-123800952D01*
X95972380Y-123562857D01*
X96020000Y-123420000D01*
X96115238Y-123324761D01*
X96210476Y-123277142D01*
X96400952Y-123229523D01*
X96543809Y-123229523D01*
X96734285Y-123277142D01*
X96829523Y-123324761D01*
X96924761Y-123420000D01*
X96972380Y-123562857D01*
X96972380Y-123800952D01*
X96972380Y-122800952D02*
X95972380Y-122800952D01*
X95972380Y-122134285D02*
X95972380Y-121943809D01*
X96020000Y-121848571D01*
X96115238Y-121753333D01*
X96305714Y-121705714D01*
X96639047Y-121705714D01*
X96829523Y-121753333D01*
X96924761Y-121848571D01*
X96972380Y-121943809D01*
X96972380Y-122134285D01*
X96924761Y-122229523D01*
X96829523Y-122324761D01*
X96639047Y-122372380D01*
X96305714Y-122372380D01*
X96115238Y-122324761D01*
X96020000Y-122229523D01*
X95972380Y-122134285D01*
X97067619Y-121515238D02*
X97067619Y-120753333D01*
X95972380Y-120324761D02*
X95972380Y-120134285D01*
X96020000Y-120039047D01*
X96115238Y-119943809D01*
X96305714Y-119896190D01*
X96639047Y-119896190D01*
X96829523Y-119943809D01*
X96924761Y-120039047D01*
X96972380Y-120134285D01*
X96972380Y-120324761D01*
X96924761Y-120420000D01*
X96829523Y-120515238D01*
X96639047Y-120562857D01*
X96305714Y-120562857D01*
X96115238Y-120515238D01*
X96020000Y-120420000D01*
X95972380Y-120324761D01*
X95972380Y-119467619D02*
X96781904Y-119467619D01*
X96877142Y-119420000D01*
X96924761Y-119372380D01*
X96972380Y-119277142D01*
X96972380Y-119086666D01*
X96924761Y-118991428D01*
X96877142Y-118943809D01*
X96781904Y-118896190D01*
X95972380Y-118896190D01*
X95972380Y-118562857D02*
X95972380Y-117991428D01*
X96972380Y-118277142D02*
X95972380Y-118277142D01*
X95972380Y-109886190D02*
X96781904Y-109886190D01*
X96877142Y-109838571D01*
X96924761Y-109790952D01*
X96972380Y-109695714D01*
X96972380Y-109505238D01*
X96924761Y-109410000D01*
X96877142Y-109362380D01*
X96781904Y-109314761D01*
X95972380Y-109314761D01*
X96924761Y-108886190D02*
X96972380Y-108743333D01*
X96972380Y-108505238D01*
X96924761Y-108410000D01*
X96877142Y-108362380D01*
X96781904Y-108314761D01*
X96686666Y-108314761D01*
X96591428Y-108362380D01*
X96543809Y-108410000D01*
X96496190Y-108505238D01*
X96448571Y-108695714D01*
X96400952Y-108790952D01*
X96353333Y-108838571D01*
X96258095Y-108886190D01*
X96162857Y-108886190D01*
X96067619Y-108838571D01*
X96020000Y-108790952D01*
X95972380Y-108695714D01*
X95972380Y-108457619D01*
X96020000Y-108314761D01*
X96448571Y-107552857D02*
X96496190Y-107410000D01*
X96543809Y-107362380D01*
X96639047Y-107314761D01*
X96781904Y-107314761D01*
X96877142Y-107362380D01*
X96924761Y-107410000D01*
X96972380Y-107505238D01*
X96972380Y-107886190D01*
X95972380Y-107886190D01*
X95972380Y-107552857D01*
X96020000Y-107457619D01*
X96067619Y-107410000D01*
X96162857Y-107362380D01*
X96258095Y-107362380D01*
X96353333Y-107410000D01*
X96400952Y-107457619D01*
X96448571Y-107552857D01*
X96448571Y-107886190D01*
X96067619Y-106171904D02*
X96020000Y-106124285D01*
X95972380Y-106029047D01*
X95972380Y-105790952D01*
X96020000Y-105695714D01*
X96067619Y-105648095D01*
X96162857Y-105600476D01*
X96258095Y-105600476D01*
X96400952Y-105648095D01*
X96972380Y-106219523D01*
X96972380Y-105600476D01*
X96877142Y-105171904D02*
X96924761Y-105124285D01*
X96972380Y-105171904D01*
X96924761Y-105219523D01*
X96877142Y-105171904D01*
X96972380Y-105171904D01*
X95972380Y-104505238D02*
X95972380Y-104410000D01*
X96020000Y-104314761D01*
X96067619Y-104267142D01*
X96162857Y-104219523D01*
X96353333Y-104171904D01*
X96591428Y-104171904D01*
X96781904Y-104219523D01*
X96877142Y-104267142D01*
X96924761Y-104314761D01*
X96972380Y-104410000D01*
X96972380Y-104505238D01*
X96924761Y-104600476D01*
X96877142Y-104648095D01*
X96781904Y-104695714D01*
X96591428Y-104743333D01*
X96353333Y-104743333D01*
X96162857Y-104695714D01*
X96067619Y-104648095D01*
X96020000Y-104600476D01*
X95972380Y-104505238D01*
X96972380Y-103076666D02*
X96305714Y-102552857D01*
X96305714Y-103076666D02*
X96972380Y-102552857D01*
X96067619Y-101457619D02*
X96020000Y-101410000D01*
X95972380Y-101314761D01*
X95972380Y-101076666D01*
X96020000Y-100981428D01*
X96067619Y-100933809D01*
X96162857Y-100886190D01*
X96258095Y-100886190D01*
X96400952Y-100933809D01*
X96972380Y-101505238D01*
X96972380Y-100886190D01*
X108458095Y-82685000D02*
X108362857Y-82637380D01*
X108220000Y-82637380D01*
X108077142Y-82685000D01*
X107981904Y-82780238D01*
X107934285Y-82875476D01*
X107886666Y-83065952D01*
X107886666Y-83208809D01*
X107934285Y-83399285D01*
X107981904Y-83494523D01*
X108077142Y-83589761D01*
X108220000Y-83637380D01*
X108315238Y-83637380D01*
X108458095Y-83589761D01*
X108505714Y-83542142D01*
X108505714Y-83208809D01*
X108315238Y-83208809D01*
X108934285Y-83637380D02*
X108934285Y-82637380D01*
X109505714Y-83637380D01*
X109505714Y-82637380D01*
X109981904Y-83637380D02*
X109981904Y-82637380D01*
X110220000Y-82637380D01*
X110362857Y-82685000D01*
X110458095Y-82780238D01*
X110505714Y-82875476D01*
X110553333Y-83065952D01*
X110553333Y-83208809D01*
X110505714Y-83399285D01*
X110458095Y-83494523D01*
X110362857Y-83589761D01*
X110220000Y-83637380D01*
X109981904Y-83637380D01*
X108394523Y-80732380D02*
X107918333Y-80732380D01*
X107870714Y-81208571D01*
X107918333Y-81160952D01*
X108013571Y-81113333D01*
X108251666Y-81113333D01*
X108346904Y-81160952D01*
X108394523Y-81208571D01*
X108442142Y-81303809D01*
X108442142Y-81541904D01*
X108394523Y-81637142D01*
X108346904Y-81684761D01*
X108251666Y-81732380D01*
X108013571Y-81732380D01*
X107918333Y-81684761D01*
X107870714Y-81637142D01*
X108727857Y-80732380D02*
X109061190Y-81732380D01*
X109394523Y-80732380D01*
D11*
G04 #@! TO.C,*
X100560000Y-112045000D02*
X102740000Y-112045000D01*
X100560000Y-99425000D02*
X102740000Y-99425000D01*
X97060000Y-112045000D02*
X89090000Y-112045000D01*
X89090000Y-112045000D02*
X89090000Y-113045000D01*
X89090000Y-113045000D02*
X88470000Y-113045000D01*
X88470000Y-113045000D02*
X88470000Y-98425000D01*
X88470000Y-98425000D02*
X89090000Y-98425000D01*
X89090000Y-98425000D02*
X89090000Y-99425000D01*
X89090000Y-99425000D02*
X97060000Y-99425000D01*
X105590000Y-100545000D02*
X105590000Y-110925000D01*
X105740000Y-102635000D02*
X105740000Y-101835000D01*
G04 #@! TO.C,Yomboprime Technologies 2018*
X109220000Y-85030000D02*
X110550000Y-85030000D01*
X110550000Y-85030000D02*
X110550000Y-86360000D01*
X110550000Y-87630000D02*
X110550000Y-125790000D01*
X107890000Y-125790000D02*
X110550000Y-125790000D01*
X107890000Y-87630000D02*
X107890000Y-125790000D01*
X107890000Y-87630000D02*
X110550000Y-87630000D01*
G04 #@! TO.C,*
X132080000Y-85030000D02*
X133410000Y-85030000D01*
X133410000Y-85030000D02*
X133410000Y-86360000D01*
X133410000Y-87630000D02*
X133410000Y-125790000D01*
X130750000Y-125790000D02*
X133410000Y-125790000D01*
X130750000Y-87630000D02*
X130750000Y-125790000D01*
X130750000Y-87630000D02*
X133410000Y-87630000D01*
D12*
X106640000Y-127920000D02*
X105640000Y-127920000D01*
X95640000Y-127920000D02*
X102640000Y-127920000D01*
X95640000Y-115920000D02*
X95640000Y-127920000D01*
X106640000Y-115920000D02*
X105640000Y-115920000D01*
X95640000Y-115920000D02*
X102640000Y-115920000D01*
X106640000Y-115920000D02*
X106640000Y-127920000D01*
X106640000Y-141215000D02*
X105640000Y-141215000D01*
X95640000Y-141215000D02*
X102640000Y-141215000D01*
X95640000Y-129215000D02*
X95640000Y-141215000D01*
X106640000Y-129215000D02*
X105640000Y-129215000D01*
X95640000Y-129215000D02*
X102640000Y-129215000D01*
X106640000Y-129215000D02*
X106640000Y-141215000D01*
D11*
G04 #@! TO.C,GND VIDEO*
X124400000Y-130810000D02*
X124400000Y-129480000D01*
X124400000Y-129480000D02*
X125730000Y-129480000D01*
X127000000Y-129480000D02*
X129600000Y-129480000D01*
X129600000Y-132140000D02*
X129600000Y-129480000D01*
X127000000Y-132140000D02*
X129600000Y-132140000D01*
X127000000Y-132140000D02*
X127000000Y-129480000D01*
G04 #@! TO.C,*
X133985000Y-80010000D02*
X135255000Y-80010000D01*
X133985000Y-81280000D02*
X133985000Y-80010000D01*
G04 #@! TO.C,POW*
X96460000Y-79950000D02*
X97790000Y-79950000D01*
X96460000Y-81280000D02*
X96460000Y-79950000D01*
X96460000Y-82550000D02*
X99120000Y-82550000D01*
X99120000Y-82550000D02*
X99120000Y-85150000D01*
X96460000Y-82550000D02*
X96460000Y-85150000D01*
X96460000Y-85150000D02*
X99120000Y-85150000D01*
G04 #@! TO.C,SW*
X100270000Y-79950000D02*
X101600000Y-79950000D01*
X100270000Y-81280000D02*
X100270000Y-79950000D01*
X100270000Y-82550000D02*
X102930000Y-82550000D01*
X102930000Y-82550000D02*
X102930000Y-85150000D01*
X100270000Y-82550000D02*
X100270000Y-85150000D01*
X100270000Y-85150000D02*
X102930000Y-85150000D01*
G04 #@! TO.C,FAN*
X104080000Y-79950000D02*
X105410000Y-79950000D01*
X104080000Y-81280000D02*
X104080000Y-79950000D01*
X104080000Y-82550000D02*
X106740000Y-82550000D01*
X106740000Y-82550000D02*
X106740000Y-85150000D01*
X104080000Y-82550000D02*
X104080000Y-85150000D01*
X104080000Y-85150000D02*
X106740000Y-85150000D01*
G04 #@! TO.C,*
X101540000Y-96580000D02*
X101540000Y-95250000D01*
X102870000Y-96580000D02*
X101540000Y-96580000D01*
X104140000Y-96580000D02*
X104140000Y-93920000D01*
X104140000Y-93920000D02*
X106740000Y-93920000D01*
X104140000Y-96580000D02*
X106740000Y-96580000D01*
X106740000Y-96580000D02*
X106740000Y-93920000D01*
D13*
G04 #@! TO.C,Yomboprime Technologies 2018*
X120626190Y-116394047D02*
X121102380Y-116394047D01*
X120102380Y-116727380D02*
X120626190Y-116394047D01*
X120102380Y-116060714D01*
X121102380Y-115584523D02*
X121054761Y-115679761D01*
X121007142Y-115727380D01*
X120911904Y-115775000D01*
X120626190Y-115775000D01*
X120530952Y-115727380D01*
X120483333Y-115679761D01*
X120435714Y-115584523D01*
X120435714Y-115441666D01*
X120483333Y-115346428D01*
X120530952Y-115298809D01*
X120626190Y-115251190D01*
X120911904Y-115251190D01*
X121007142Y-115298809D01*
X121054761Y-115346428D01*
X121102380Y-115441666D01*
X121102380Y-115584523D01*
X121102380Y-114822619D02*
X120435714Y-114822619D01*
X120530952Y-114822619D02*
X120483333Y-114775000D01*
X120435714Y-114679761D01*
X120435714Y-114536904D01*
X120483333Y-114441666D01*
X120578571Y-114394047D01*
X121102380Y-114394047D01*
X120578571Y-114394047D02*
X120483333Y-114346428D01*
X120435714Y-114251190D01*
X120435714Y-114108333D01*
X120483333Y-114013095D01*
X120578571Y-113965476D01*
X121102380Y-113965476D01*
X121102380Y-113489285D02*
X120102380Y-113489285D01*
X120483333Y-113489285D02*
X120435714Y-113394047D01*
X120435714Y-113203571D01*
X120483333Y-113108333D01*
X120530952Y-113060714D01*
X120626190Y-113013095D01*
X120911904Y-113013095D01*
X121007142Y-113060714D01*
X121054761Y-113108333D01*
X121102380Y-113203571D01*
X121102380Y-113394047D01*
X121054761Y-113489285D01*
X121102380Y-112441666D02*
X121054761Y-112536904D01*
X121007142Y-112584523D01*
X120911904Y-112632142D01*
X120626190Y-112632142D01*
X120530952Y-112584523D01*
X120483333Y-112536904D01*
X120435714Y-112441666D01*
X120435714Y-112298809D01*
X120483333Y-112203571D01*
X120530952Y-112155952D01*
X120626190Y-112108333D01*
X120911904Y-112108333D01*
X121007142Y-112155952D01*
X121054761Y-112203571D01*
X121102380Y-112298809D01*
X121102380Y-112441666D01*
X120435714Y-111679761D02*
X121435714Y-111679761D01*
X120483333Y-111679761D02*
X120435714Y-111584523D01*
X120435714Y-111394047D01*
X120483333Y-111298809D01*
X120530952Y-111251190D01*
X120626190Y-111203571D01*
X120911904Y-111203571D01*
X121007142Y-111251190D01*
X121054761Y-111298809D01*
X121102380Y-111394047D01*
X121102380Y-111584523D01*
X121054761Y-111679761D01*
X121102380Y-110775000D02*
X120435714Y-110775000D01*
X120626190Y-110775000D02*
X120530952Y-110727380D01*
X120483333Y-110679761D01*
X120435714Y-110584523D01*
X120435714Y-110489285D01*
X121102380Y-110155952D02*
X120435714Y-110155952D01*
X120102380Y-110155952D02*
X120150000Y-110203571D01*
X120197619Y-110155952D01*
X120150000Y-110108333D01*
X120102380Y-110155952D01*
X120197619Y-110155952D01*
X121102380Y-109679761D02*
X120435714Y-109679761D01*
X120530952Y-109679761D02*
X120483333Y-109632142D01*
X120435714Y-109536904D01*
X120435714Y-109394047D01*
X120483333Y-109298809D01*
X120578571Y-109251190D01*
X121102380Y-109251190D01*
X120578571Y-109251190D02*
X120483333Y-109203571D01*
X120435714Y-109108333D01*
X120435714Y-108965476D01*
X120483333Y-108870238D01*
X120578571Y-108822619D01*
X121102380Y-108822619D01*
X121054761Y-107965476D02*
X121102380Y-108060714D01*
X121102380Y-108251190D01*
X121054761Y-108346428D01*
X120959523Y-108394047D01*
X120578571Y-108394047D01*
X120483333Y-108346428D01*
X120435714Y-108251190D01*
X120435714Y-108060714D01*
X120483333Y-107965476D01*
X120578571Y-107917857D01*
X120673809Y-107917857D01*
X120769047Y-108394047D01*
X120102380Y-106870238D02*
X120102380Y-106298809D01*
X121102380Y-106584523D02*
X120102380Y-106584523D01*
X121054761Y-105584523D02*
X121102380Y-105679761D01*
X121102380Y-105870238D01*
X121054761Y-105965476D01*
X120959523Y-106013095D01*
X120578571Y-106013095D01*
X120483333Y-105965476D01*
X120435714Y-105870238D01*
X120435714Y-105679761D01*
X120483333Y-105584523D01*
X120578571Y-105536904D01*
X120673809Y-105536904D01*
X120769047Y-106013095D01*
X121054761Y-104679761D02*
X121102380Y-104775000D01*
X121102380Y-104965476D01*
X121054761Y-105060714D01*
X121007142Y-105108333D01*
X120911904Y-105155952D01*
X120626190Y-105155952D01*
X120530952Y-105108333D01*
X120483333Y-105060714D01*
X120435714Y-104965476D01*
X120435714Y-104775000D01*
X120483333Y-104679761D01*
X121102380Y-104251190D02*
X120102380Y-104251190D01*
X121102380Y-103822619D02*
X120578571Y-103822619D01*
X120483333Y-103870238D01*
X120435714Y-103965476D01*
X120435714Y-104108333D01*
X120483333Y-104203571D01*
X120530952Y-104251190D01*
X120435714Y-103346428D02*
X121102380Y-103346428D01*
X120530952Y-103346428D02*
X120483333Y-103298809D01*
X120435714Y-103203571D01*
X120435714Y-103060714D01*
X120483333Y-102965476D01*
X120578571Y-102917857D01*
X121102380Y-102917857D01*
X121102380Y-102298809D02*
X121054761Y-102394047D01*
X121007142Y-102441666D01*
X120911904Y-102489285D01*
X120626190Y-102489285D01*
X120530952Y-102441666D01*
X120483333Y-102394047D01*
X120435714Y-102298809D01*
X120435714Y-102155952D01*
X120483333Y-102060714D01*
X120530952Y-102013095D01*
X120626190Y-101965476D01*
X120911904Y-101965476D01*
X121007142Y-102013095D01*
X121054761Y-102060714D01*
X121102380Y-102155952D01*
X121102380Y-102298809D01*
X121102380Y-101394047D02*
X121054761Y-101489285D01*
X120959523Y-101536904D01*
X120102380Y-101536904D01*
X121102380Y-100870238D02*
X121054761Y-100965476D01*
X121007142Y-101013095D01*
X120911904Y-101060714D01*
X120626190Y-101060714D01*
X120530952Y-101013095D01*
X120483333Y-100965476D01*
X120435714Y-100870238D01*
X120435714Y-100727380D01*
X120483333Y-100632142D01*
X120530952Y-100584523D01*
X120626190Y-100536904D01*
X120911904Y-100536904D01*
X121007142Y-100584523D01*
X121054761Y-100632142D01*
X121102380Y-100727380D01*
X121102380Y-100870238D01*
X120435714Y-99679761D02*
X121245238Y-99679761D01*
X121340476Y-99727380D01*
X121388095Y-99775000D01*
X121435714Y-99870238D01*
X121435714Y-100013095D01*
X121388095Y-100108333D01*
X121054761Y-99679761D02*
X121102380Y-99775000D01*
X121102380Y-99965476D01*
X121054761Y-100060714D01*
X121007142Y-100108333D01*
X120911904Y-100155952D01*
X120626190Y-100155952D01*
X120530952Y-100108333D01*
X120483333Y-100060714D01*
X120435714Y-99965476D01*
X120435714Y-99775000D01*
X120483333Y-99679761D01*
X121102380Y-99203571D02*
X120435714Y-99203571D01*
X120102380Y-99203571D02*
X120150000Y-99251190D01*
X120197619Y-99203571D01*
X120150000Y-99155952D01*
X120102380Y-99203571D01*
X120197619Y-99203571D01*
X121054761Y-98346428D02*
X121102380Y-98441666D01*
X121102380Y-98632142D01*
X121054761Y-98727380D01*
X120959523Y-98775000D01*
X120578571Y-98775000D01*
X120483333Y-98727380D01*
X120435714Y-98632142D01*
X120435714Y-98441666D01*
X120483333Y-98346428D01*
X120578571Y-98298809D01*
X120673809Y-98298809D01*
X120769047Y-98775000D01*
X121054761Y-97917857D02*
X121102380Y-97822619D01*
X121102380Y-97632142D01*
X121054761Y-97536904D01*
X120959523Y-97489285D01*
X120911904Y-97489285D01*
X120816666Y-97536904D01*
X120769047Y-97632142D01*
X120769047Y-97775000D01*
X120721428Y-97870238D01*
X120626190Y-97917857D01*
X120578571Y-97917857D01*
X120483333Y-97870238D01*
X120435714Y-97775000D01*
X120435714Y-97632142D01*
X120483333Y-97536904D01*
X120197619Y-96346428D02*
X120150000Y-96298809D01*
X120102380Y-96203571D01*
X120102380Y-95965476D01*
X120150000Y-95870238D01*
X120197619Y-95822619D01*
X120292857Y-95775000D01*
X120388095Y-95775000D01*
X120530952Y-95822619D01*
X121102380Y-96394047D01*
X121102380Y-95775000D01*
X120102380Y-95155952D02*
X120102380Y-95060714D01*
X120150000Y-94965476D01*
X120197619Y-94917857D01*
X120292857Y-94870238D01*
X120483333Y-94822619D01*
X120721428Y-94822619D01*
X120911904Y-94870238D01*
X121007142Y-94917857D01*
X121054761Y-94965476D01*
X121102380Y-95060714D01*
X121102380Y-95155952D01*
X121054761Y-95251190D01*
X121007142Y-95298809D01*
X120911904Y-95346428D01*
X120721428Y-95394047D01*
X120483333Y-95394047D01*
X120292857Y-95346428D01*
X120197619Y-95298809D01*
X120150000Y-95251190D01*
X120102380Y-95155952D01*
X121102380Y-93870238D02*
X121102380Y-94441666D01*
X121102380Y-94155952D02*
X120102380Y-94155952D01*
X120245238Y-94251190D01*
X120340476Y-94346428D01*
X120388095Y-94441666D01*
X120530952Y-93298809D02*
X120483333Y-93394047D01*
X120435714Y-93441666D01*
X120340476Y-93489285D01*
X120292857Y-93489285D01*
X120197619Y-93441666D01*
X120150000Y-93394047D01*
X120102380Y-93298809D01*
X120102380Y-93108333D01*
X120150000Y-93013095D01*
X120197619Y-92965476D01*
X120292857Y-92917857D01*
X120340476Y-92917857D01*
X120435714Y-92965476D01*
X120483333Y-93013095D01*
X120530952Y-93108333D01*
X120530952Y-93298809D01*
X120578571Y-93394047D01*
X120626190Y-93441666D01*
X120721428Y-93489285D01*
X120911904Y-93489285D01*
X121007142Y-93441666D01*
X121054761Y-93394047D01*
X121102380Y-93298809D01*
X121102380Y-93108333D01*
X121054761Y-93013095D01*
X121007142Y-92965476D01*
X120911904Y-92917857D01*
X120721428Y-92917857D01*
X120626190Y-92965476D01*
X120578571Y-93013095D01*
X120530952Y-93108333D01*
D14*
G04 #@! TO.C,*
D13*
D15*
G04 #@! TO.C,GND VIDEO*
D13*
X124349285Y-132850000D02*
X124254047Y-132802380D01*
X124111190Y-132802380D01*
X123968333Y-132850000D01*
X123873095Y-132945238D01*
X123825476Y-133040476D01*
X123777857Y-133230952D01*
X123777857Y-133373809D01*
X123825476Y-133564285D01*
X123873095Y-133659523D01*
X123968333Y-133754761D01*
X124111190Y-133802380D01*
X124206428Y-133802380D01*
X124349285Y-133754761D01*
X124396904Y-133707142D01*
X124396904Y-133373809D01*
X124206428Y-133373809D01*
X124825476Y-133802380D02*
X124825476Y-132802380D01*
X125396904Y-133802380D01*
X125396904Y-132802380D01*
X125873095Y-133802380D02*
X125873095Y-132802380D01*
X126111190Y-132802380D01*
X126254047Y-132850000D01*
X126349285Y-132945238D01*
X126396904Y-133040476D01*
X126444523Y-133230952D01*
X126444523Y-133373809D01*
X126396904Y-133564285D01*
X126349285Y-133659523D01*
X126254047Y-133754761D01*
X126111190Y-133802380D01*
X125873095Y-133802380D01*
X127492142Y-132802380D02*
X127825476Y-133802380D01*
X128158809Y-132802380D01*
X128492142Y-133802380D02*
X128492142Y-132802380D01*
X128968333Y-133802380D02*
X128968333Y-132802380D01*
X129206428Y-132802380D01*
X129349285Y-132850000D01*
X129444523Y-132945238D01*
X129492142Y-133040476D01*
X129539761Y-133230952D01*
X129539761Y-133373809D01*
X129492142Y-133564285D01*
X129444523Y-133659523D01*
X129349285Y-133754761D01*
X129206428Y-133802380D01*
X128968333Y-133802380D01*
X129968333Y-133278571D02*
X130301666Y-133278571D01*
X130444523Y-133802380D02*
X129968333Y-133802380D01*
X129968333Y-132802380D01*
X130444523Y-132802380D01*
X131063571Y-132802380D02*
X131254047Y-132802380D01*
X131349285Y-132850000D01*
X131444523Y-132945238D01*
X131492142Y-133135714D01*
X131492142Y-133469047D01*
X131444523Y-133659523D01*
X131349285Y-133754761D01*
X131254047Y-133802380D01*
X131063571Y-133802380D01*
X130968333Y-133754761D01*
X130873095Y-133659523D01*
X130825476Y-133469047D01*
X130825476Y-133135714D01*
X130873095Y-132945238D01*
X130968333Y-132850000D01*
X131063571Y-132802380D01*
G04 #@! TO.C,*
G04 #@! TO.C,POW*
X96432857Y-79402380D02*
X96432857Y-78402380D01*
X96813809Y-78402380D01*
X96909047Y-78450000D01*
X96956666Y-78497619D01*
X97004285Y-78592857D01*
X97004285Y-78735714D01*
X96956666Y-78830952D01*
X96909047Y-78878571D01*
X96813809Y-78926190D01*
X96432857Y-78926190D01*
X97623333Y-78402380D02*
X97813809Y-78402380D01*
X97909047Y-78450000D01*
X98004285Y-78545238D01*
X98051904Y-78735714D01*
X98051904Y-79069047D01*
X98004285Y-79259523D01*
X97909047Y-79354761D01*
X97813809Y-79402380D01*
X97623333Y-79402380D01*
X97528095Y-79354761D01*
X97432857Y-79259523D01*
X97385238Y-79069047D01*
X97385238Y-78735714D01*
X97432857Y-78545238D01*
X97528095Y-78450000D01*
X97623333Y-78402380D01*
X98385238Y-78402380D02*
X98623333Y-79402380D01*
X98813809Y-78688095D01*
X99004285Y-79402380D01*
X99242380Y-78402380D01*
G04 #@! TO.C,SW*
X100742857Y-79354761D02*
X100885714Y-79402380D01*
X101123809Y-79402380D01*
X101219047Y-79354761D01*
X101266666Y-79307142D01*
X101314285Y-79211904D01*
X101314285Y-79116666D01*
X101266666Y-79021428D01*
X101219047Y-78973809D01*
X101123809Y-78926190D01*
X100933333Y-78878571D01*
X100838095Y-78830952D01*
X100790476Y-78783333D01*
X100742857Y-78688095D01*
X100742857Y-78592857D01*
X100790476Y-78497619D01*
X100838095Y-78450000D01*
X100933333Y-78402380D01*
X101171428Y-78402380D01*
X101314285Y-78450000D01*
X101647619Y-78402380D02*
X101885714Y-79402380D01*
X102076190Y-78688095D01*
X102266666Y-79402380D01*
X102504761Y-78402380D01*
G04 #@! TO.C,FAN*
X104600476Y-78878571D02*
X104267142Y-78878571D01*
X104267142Y-79402380D02*
X104267142Y-78402380D01*
X104743333Y-78402380D01*
X105076666Y-79116666D02*
X105552857Y-79116666D01*
X104981428Y-79402380D02*
X105314761Y-78402380D01*
X105648095Y-79402380D01*
X105981428Y-79402380D02*
X105981428Y-78402380D01*
X106552857Y-79402380D01*
X106552857Y-78402380D01*
G04 #@! TO.C,*
G04 #@! TD*
M02*
