M48
;DRILL file {KiCad 5.0.1-33cea8e~68~ubuntu18.04.1} date jue 08 nov 2018 20:55:42 CET
;FORMAT={3:3/ absolute / metric / suppress leading zeros}
FMAT,2
METRIC,TZ
T1C0.400
T2C0.920
T3C1.000
T4C1.300
T5C2.300
T6C1.200
T7C3.200
%
G90
G05
M71
T1
X123825Y-118110
X128270Y-118110
T2
X101520Y-102235
X101520Y-104735
X101520Y-106735
X101520Y-109235
X104140Y-102235
X104140Y-104735
X104140Y-106735
X104140Y-109235
T3
X97790Y-81280
X97790Y-83820
X101600Y-81280
X101600Y-83820
X132080Y-86360
X132080Y-88900
X132080Y-91440
X132080Y-93980
X132080Y-96520
X132080Y-99060
X132080Y-101600
X132080Y-104140
X132080Y-106680
X132080Y-109220
X132080Y-111760
X132080Y-114300
X132080Y-116840
X132080Y-119380
X132080Y-121920
X132080Y-124460
X102870Y-95250
X105410Y-95250
X135255Y-81280
X135255Y-83820
X135255Y-86360
X135255Y-88900
X135255Y-91440
X135255Y-93980
X135255Y-96520
X135255Y-99060
X135255Y-101600
X135255Y-104140
X135255Y-106680
X135255Y-109220
X135255Y-111760
X135255Y-114300
X125730Y-130810
X128270Y-130810
X109220Y-86360
X109220Y-88900
X109220Y-91440
X109220Y-93980
X109220Y-96520
X109220Y-99060
X109220Y-101600
X109220Y-104140
X109220Y-106680
X109220Y-109220
X109220Y-111760
X109220Y-114300
X109220Y-116840
X109220Y-119380
X109220Y-121920
X109220Y-124460
X105410Y-81280
X105410Y-83820
T4
X99140Y-121920
X104140Y-116920
X104140Y-119420
X104140Y-124420
X104140Y-126920
X99140Y-135215
X104140Y-130215
X104140Y-132715
X104140Y-137715
X104140Y-140215
T5
X98810Y-99165
X98810Y-112305
X104490Y-99165
X104490Y-112305
T6
X96640Y-116920
X96640Y-126920
X99140Y-116920
X99140Y-126920
X104140Y-121920
X96640Y-130215
X96640Y-140215
X99140Y-130215
X99140Y-140215
X104140Y-135215
T7
X97790Y-92075
X136525Y-130810
X111125Y-130810
X136588Y-121354
X104613Y-89382
T0
M30
