G04 #@! TF.GenerationSoftware,KiCad,Pcbnew,5.0.1-33cea8e~68~ubuntu18.04.1*
G04 #@! TF.CreationDate,2018-11-08T20:55:39+01:00*
G04 #@! TF.ProjectId,MotherPCB,4D6F746865725043422E6B696361645F,rev?*
G04 #@! TF.SameCoordinates,Original*
G04 #@! TF.FileFunction,Copper,L2,Bot,Signal*
G04 #@! TF.FilePolarity,Positive*
%FSLAX46Y46*%
G04 Gerber Fmt 4.6, Leading zero omitted, Abs format (unit mm)*
G04 Created by KiCad (PCBNEW 5.0.1-33cea8e~68~ubuntu18.04.1) date jue 08 nov 2018 20:55:39 CET*
%MOMM*%
%LPD*%
G01*
G04 APERTURE LIST*
G04 #@! TA.AperFunction,ComponentPad*
%ADD10C,3.000000*%
G04 #@! TD*
G04 #@! TA.AperFunction,ComponentPad*
%ADD11R,1.500000X1.500000*%
G04 #@! TD*
G04 #@! TA.AperFunction,ComponentPad*
%ADD12C,1.500000*%
G04 #@! TD*
G04 #@! TA.AperFunction,ComponentPad*
%ADD13O,1.700000X1.700000*%
G04 #@! TD*
G04 #@! TA.AperFunction,ComponentPad*
%ADD14R,1.700000X1.700000*%
G04 #@! TD*
G04 #@! TA.AperFunction,ComponentPad*
%ADD15C,2.184400*%
G04 #@! TD*
G04 #@! TA.AperFunction,ViaPad*
%ADD16C,0.800000*%
G04 #@! TD*
G04 #@! TA.AperFunction,Conductor*
%ADD17C,0.800000*%
G04 #@! TD*
G04 #@! TA.AperFunction,Conductor*
%ADD18C,0.250000*%
G04 #@! TD*
G04 APERTURE END LIST*
D10*
G04 #@! TO.P,,9*
G04 #@! TO.N,N/C*
X104490000Y-112305000D03*
X104490000Y-99165000D03*
D11*
G04 #@! TO.P,,1*
X104140000Y-102235000D03*
D12*
G04 #@! TO.P,,2*
X104140000Y-104735000D03*
G04 #@! TO.P,,3*
X104140000Y-106735000D03*
G04 #@! TO.P,,4*
X104140000Y-109235000D03*
D10*
G04 #@! TO.P,,9*
X98810000Y-99165000D03*
X98810000Y-112305000D03*
D12*
G04 #@! TO.P,,5*
X101520000Y-102235000D03*
G04 #@! TO.P,,6*
X101520000Y-104735000D03*
G04 #@! TO.P,,7*
X101520000Y-106735000D03*
G04 #@! TO.P,,8*
X101520000Y-109235000D03*
G04 #@! TD*
D13*
G04 #@! TO.P,Yomboprime Technologies 2018,16*
G04 #@! TO.N,N/C*
X109220000Y-124460000D03*
G04 #@! TO.P,Yomboprime Technologies 2018,15*
X109220000Y-121920000D03*
G04 #@! TO.P,Yomboprime Technologies 2018,14*
X109220000Y-119380000D03*
G04 #@! TO.P,Yomboprime Technologies 2018,13*
X109220000Y-116840000D03*
G04 #@! TO.P,Yomboprime Technologies 2018,12*
X109220000Y-114300000D03*
G04 #@! TO.P,Yomboprime Technologies 2018,11*
X109220000Y-111760000D03*
G04 #@! TO.P,Yomboprime Technologies 2018,10*
X109220000Y-109220000D03*
G04 #@! TO.P,Yomboprime Technologies 2018,9*
X109220000Y-106680000D03*
G04 #@! TO.P,Yomboprime Technologies 2018,8*
X109220000Y-104140000D03*
G04 #@! TO.P,Yomboprime Technologies 2018,7*
X109220000Y-101600000D03*
G04 #@! TO.P,Yomboprime Technologies 2018,6*
X109220000Y-99060000D03*
G04 #@! TO.P,Yomboprime Technologies 2018,5*
X109220000Y-96520000D03*
G04 #@! TO.P,Yomboprime Technologies 2018,4*
X109220000Y-93980000D03*
G04 #@! TO.P,Yomboprime Technologies 2018,3*
X109220000Y-91440000D03*
G04 #@! TO.P,Yomboprime Technologies 2018,2*
X109220000Y-88900000D03*
D14*
G04 #@! TO.P,Yomboprime Technologies 2018,1*
X109220000Y-86360000D03*
G04 #@! TD*
D13*
G04 #@! TO.P,,16*
G04 #@! TO.N,N/C*
X132080000Y-124460000D03*
G04 #@! TO.P,,15*
X132080000Y-121920000D03*
G04 #@! TO.P,,14*
X132080000Y-119380000D03*
G04 #@! TO.P,,13*
X132080000Y-116840000D03*
G04 #@! TO.P,,12*
X132080000Y-114300000D03*
G04 #@! TO.P,,11*
X132080000Y-111760000D03*
G04 #@! TO.P,,10*
X132080000Y-109220000D03*
G04 #@! TO.P,,9*
X132080000Y-106680000D03*
G04 #@! TO.P,,8*
X132080000Y-104140000D03*
G04 #@! TO.P,,7*
X132080000Y-101600000D03*
G04 #@! TO.P,,6*
X132080000Y-99060000D03*
G04 #@! TO.P,,5*
X132080000Y-96520000D03*
G04 #@! TO.P,,4*
X132080000Y-93980000D03*
G04 #@! TO.P,,3*
X132080000Y-91440000D03*
G04 #@! TO.P,,2*
X132080000Y-88900000D03*
D14*
G04 #@! TO.P,,1*
X132080000Y-86360000D03*
G04 #@! TD*
D15*
G04 #@! TO.P,,TIP*
G04 #@! TO.N,N/C*
X104140000Y-126920000D03*
G04 #@! TO.P,,TSH*
X104140000Y-124420000D03*
G04 #@! TO.P,,RING*
X104140000Y-116920000D03*
G04 #@! TO.P,,RSH*
X104140000Y-119420000D03*
G04 #@! TO.P,,SLEEVE*
X99140000Y-121920000D03*
G04 #@! TD*
G04 #@! TO.P,,TIP*
G04 #@! TO.N,N/C*
X104140000Y-140215000D03*
G04 #@! TO.P,,TSH*
X104140000Y-137715000D03*
G04 #@! TO.P,,RING*
X104140000Y-130215000D03*
G04 #@! TO.P,,RSH*
X104140000Y-132715000D03*
G04 #@! TO.P,,SLEEVE*
X99140000Y-135215000D03*
G04 #@! TD*
D13*
G04 #@! TO.P,GND VIDEO,2*
G04 #@! TO.N,N/C*
X128270000Y-130810000D03*
D14*
G04 #@! TO.P,GND VIDEO,1*
X125730000Y-130810000D03*
G04 #@! TD*
D13*
G04 #@! TO.P,,14*
G04 #@! TO.N,N/C*
X135255000Y-114300000D03*
G04 #@! TO.P,,13*
X135255000Y-111760000D03*
G04 #@! TO.P,,12*
X135255000Y-109220000D03*
G04 #@! TO.P,,11*
X135255000Y-106680000D03*
G04 #@! TO.P,,10*
X135255000Y-104140000D03*
G04 #@! TO.P,,9*
X135255000Y-101600000D03*
G04 #@! TO.P,,8*
X135255000Y-99060000D03*
G04 #@! TO.P,,7*
X135255000Y-96520000D03*
G04 #@! TO.P,,6*
X135255000Y-93980000D03*
G04 #@! TO.P,,5*
X135255000Y-91440000D03*
G04 #@! TO.P,,4*
X135255000Y-88900000D03*
G04 #@! TO.P,,3*
X135255000Y-86360000D03*
G04 #@! TO.P,,2*
X135255000Y-83820000D03*
D14*
G04 #@! TO.P,,1*
X135255000Y-81280000D03*
G04 #@! TD*
D13*
G04 #@! TO.P,POW,2*
G04 #@! TO.N,N/C*
X97790000Y-83820000D03*
D14*
G04 #@! TO.P,POW,1*
X97790000Y-81280000D03*
G04 #@! TD*
D13*
G04 #@! TO.P,SW,2*
G04 #@! TO.N,N/C*
X101600000Y-83820000D03*
D14*
G04 #@! TO.P,SW,1*
X101600000Y-81280000D03*
G04 #@! TD*
D13*
G04 #@! TO.P,FAN,2*
G04 #@! TO.N,N/C*
X105410000Y-83820000D03*
D14*
G04 #@! TO.P,FAN,1*
X105410000Y-81280000D03*
G04 #@! TD*
D13*
G04 #@! TO.P,,2*
G04 #@! TO.N,N/C*
X105410000Y-95250000D03*
D14*
G04 #@! TO.P,,1*
X102870000Y-95250000D03*
G04 #@! TD*
D16*
G04 #@! TO.N,*
X123825000Y-118110000D03*
X128270000Y-118110000D03*
G04 #@! TD*
D17*
G04 #@! TO.N,*
X111125000Y-93980000D02*
X109220000Y-93980000D01*
X105410000Y-83820000D02*
X111125000Y-83820000D01*
X111760000Y-93345000D02*
X111125000Y-93980000D01*
X111125000Y-83820000D02*
X111760000Y-84455000D01*
X111760000Y-86360000D02*
X111760000Y-93345000D01*
X111760000Y-86360000D02*
X125730000Y-86360000D01*
X111760000Y-84455000D02*
X111760000Y-86360000D01*
X125730000Y-86360000D02*
X132715000Y-79375000D01*
X132715000Y-79375000D02*
X137160000Y-79375000D01*
X137160000Y-79375000D02*
X137795000Y-80010000D01*
X137795000Y-107950000D02*
X136525000Y-109220000D01*
X136525000Y-109220000D02*
X135255000Y-109220000D01*
X137795000Y-86360000D02*
X135255000Y-86360000D01*
X137795000Y-80010000D02*
X137795000Y-86360000D01*
X137795000Y-96520000D02*
X135255000Y-96520000D01*
X137795000Y-96520000D02*
X137795000Y-107950000D01*
X137795000Y-86360000D02*
X137795000Y-96520000D01*
D18*
X106085000Y-104735000D02*
X109220000Y-101600000D01*
X104140000Y-104735000D02*
X106085000Y-104735000D01*
X106625000Y-106735000D02*
X109220000Y-104140000D01*
X104140000Y-106735000D02*
X106625000Y-106735000D01*
X109220000Y-109220000D02*
X106680000Y-109220000D01*
X106680000Y-109220000D02*
X105410000Y-107950000D01*
X102735000Y-107950000D02*
X101520000Y-106735000D01*
X105410000Y-107950000D02*
X102735000Y-107950000D01*
D17*
X101600000Y-102155000D02*
X101520000Y-102235000D01*
X101520000Y-102235000D02*
X104140000Y-102235000D01*
D18*
X134620000Y-114300000D02*
X135255000Y-114300000D01*
X132080000Y-111760000D02*
X134620000Y-114300000D01*
X134620000Y-111760000D02*
X135255000Y-111760000D01*
X132080000Y-109220000D02*
X134620000Y-111760000D01*
X132080000Y-106680000D02*
X135255000Y-106680000D01*
X132080000Y-104140000D02*
X135255000Y-104140000D01*
X132080000Y-101600000D02*
X135255000Y-101600000D01*
X132080000Y-99060000D02*
X135255000Y-99060000D01*
X133350000Y-90805000D02*
X135255000Y-88900000D01*
X132080000Y-93980000D02*
X133350000Y-92710000D01*
X133350000Y-92710000D02*
X133350000Y-90805000D01*
X133985000Y-92710000D02*
X135255000Y-91440000D01*
X132080000Y-96520000D02*
X133985000Y-94615000D01*
X133985000Y-94615000D02*
X133985000Y-92710000D01*
X132080000Y-116840000D02*
X121920000Y-116840000D01*
X111840000Y-126920000D02*
X104140000Y-126920000D01*
X121920000Y-116840000D02*
X111840000Y-126920000D01*
D17*
X123825000Y-118110000D02*
X123825000Y-125730000D01*
X125730000Y-127635000D02*
X125730000Y-130810000D01*
X123825000Y-125730000D02*
X125730000Y-127635000D01*
D18*
X128270000Y-118110000D02*
X128270000Y-130810000D01*
D17*
X101600000Y-83820000D02*
X101600000Y-92710000D01*
X101600000Y-92710000D02*
X100965000Y-93345000D01*
X100965000Y-93345000D02*
X100965000Y-97155000D01*
X100965000Y-97155000D02*
X101600000Y-97790000D01*
X101600000Y-97790000D02*
X101600000Y-100330000D01*
X101520000Y-100410000D02*
X101520000Y-102235000D01*
X101600000Y-100330000D02*
X101520000Y-100410000D01*
D18*
X107950000Y-95250000D02*
X109220000Y-96520000D01*
X105410000Y-95250000D02*
X107950000Y-95250000D01*
X102870000Y-96350000D02*
X103040000Y-96520000D01*
X102870000Y-95250000D02*
X102870000Y-96350000D01*
X103040000Y-96520000D02*
X104775000Y-96520000D01*
X104775000Y-96520000D02*
X105410000Y-97155000D01*
X107315000Y-97155000D02*
X109220000Y-99060000D01*
X105410000Y-97155000D02*
X107315000Y-97155000D01*
D17*
X130810000Y-91440000D02*
X125730000Y-86360000D01*
X132080000Y-91440000D02*
X130810000Y-91440000D01*
G04 #@! TD*
M02*
